<svg width="2587" height="1816" xmlns="http://www.w3.org/2000/svg" xmlns:xlink="http://www.w3.org/1999/xlink" xml:space="preserve" overflow="hidden"><defs><clipPath id="clip0"><rect x="1024" y="142" width="2587" height="1816"/></clipPath></defs><g clip-path="url(#clip0)" transform="translate(-1024 -142)"><rect x="1025" y="143" width="2584" height="1813" fill="#FFFFFF"/><g><path d="M1126.5 1905.5 3337.5 1905.5M1126.5 1760.56 3337.5 1760.56M1126.5 1615.55 3337.5 1615.55M1126.5 1326.54 3337.5 1326.54M1126.5 1181.54 3337.5 1181.54M1126.5 1036.53 3337.5 1036.53M1126.5 891.529 3337.5 891.529M1126.5 747.525 3337.5 747.525M1126.5 602.52 3337.5 602.52M1126.5 457.515 3337.5 457.515M1126.5 312.5 3337.5 312.5" stroke="#D9D9D9" stroke-width="3.4375" stroke-linejoin="round" stroke-miterlimit="10" fill="none"/></g><g><path d="M1126.5 1471.5 3337.5 1471.5" stroke="#D9D9D9" stroke-width="3.4375" stroke-linejoin="round" stroke-miterlimit="10" fill="none" fill-rule="evenodd"/></g><g><path d="M1127 1471 1130.04 1471 1132.04 1471 1134.04 1471 1136.04 1471 1138.04 1471 1141.04 1471 1143.04 1471 1145.04 1471 1147.04 1471 1149.04 1471 1152.04 1470.05 1154.04 1468.05 1156.04 1467.05 1158.04 1465.05 1161.04 1464.05 1163.04 1463.05 1165.04 1461.05 1167.04 1460.05 1169.04 1459.05 1172.04 1457.05 1174.04 1456.05 1176.04 1453.05 1178.04 1450.05 1180.04 1448.05 1183.04 1445.05 1185.04 1442.05 1187.04 1440.05 1189.04 1437.05 1191.04 1435.05 1194.04 1432.05 1196.04 1430.05 1198.04 1427.05 1200.04 1423.05 1202.04 1419.05 1205.04 1416.05 1207.04 1412.05 1209.04 1408.05 1211.04 1404.05 1213.04 1401.05 1216.04 1397.05 1218.04 1393.05 1220.04 1390.05 1222.04 1386.05 1225.04 1381.05 1227.04 1376.05 1229.04 1372.05 1231.04 1367.04 1233.04 1362.04 1236.04 1357.04 1238.04 1353.04 1240.04 1348.04 1242.04 1344.04 1244.04 1339.04 1247.04 1335.04 1249.04 1329.04 1251.04 1323.04 1253.04 1317.04 1255.04 1311.04 1258.04 1306.04 1260.04 1300.04 1262.04 1295.04 1264.04 1289.04 1266.04 1284.04 1269.04 1278.04 1271.04 1273.04 1273.04 1266.04 1275.04 1260.04 1277.04 1253.04 1280.04 1247.04 1282.04 1240.04 1284.04 1234.04 1286.04 1227.04 1288.04 1221.04 1291.04 1215.04 1293.04 1209.04 1295.04 1203.04 1297.04 1195.04 1300.04 1188.04 1302.04 1181.04 1304.04 1173.04 1306.04 1166.04 1308.04 1159.04 1311.04 1152.04 1313.04 1145.04 1315.04 1138.04 1317.04 1132.04 1319.04 1125.04 1322.04 1120.04 1324.04 1114.04 1326.04 1109.04 1328.04 1104.04 1330.04 1099.04 1333.04 1094.04 1335.04 1089.04 1337.04 1084.04 1339.04 1080.04 1341.04 1075.04 1344.04 1070.04 1346.04 1067.04 1348.04 1064.03 1350.04 1061.03 1352.04 1057.03 1355.04 1054.03 1357.04 1051.03 1359.04 1048.03 1361.04 1045.03 1364.04 1042.03 1366.04 1039.03 1368.04 1036.03 1370.04 1035.03 1372.04 1033.03 1375.05 1032.03 1377.05 1031.03 1379.05 1029.03 1381.05 1028.03 1383.05 1027.03 1386.05 1025.03 1388.05 1024.03 1390.05 1023.03 1392.05 1021 1394.05 1021.03 1397.05 1022.03 1399.05 1022.03 1401.05 1022.03 1403.05 1022.03 1405.05 1022.03 1408.05 1022.03 1410.05 1022.03 1412.05 1023.03 1414.05 1023.03 1416.05 1023.03 1419.05 1024.03 1421.05 1026.03 1423.05 1028.03 1425.05 1029.03 1427.05 1031.03 1430.05 1032.03 1432.05 1034.03 1434.05 1035.03 1436.05 1037.03 1439.05 1038.03 1441.05 1039.03 1443.05 1042.03 1445.05 1045.03 1447.05 1048.03 1450.05 1051.03 1452.05 1053.03 1454.05 1056.03 1456.05 1059.03 1458.05 1062.03 1461.05 1064.03 1463.05 1067.04 1465.05 1069.04 1467.05 1073.04 1469.05 1077.04 1472.05 1081.04 1474.05 1085.04 1476.05 1089.04 1478.05 1093.04 1480.05 1097.04 1483.05 1100.04 1485.05 1104.04 1487.05 1108.04 1489.05 1111.04 1491.05 1117.04 1494.05 1122.04 1496.05 1126.04 1498.05 1131.04 1500.05 1136.04 1503.05 1141.04 1505.05 1146.04 1507.05 1150.04 1509.05 1155.04 1511.05 1160.04 1514.05 1164.04 1516.05 1170.04 1518.05 1176.04 1520.05 1182.04 1522.05 1188.04 1525.05 1193.04 1527.05 1199.04 1529.05 1205.04 1531.05 1210.04 1533.05 1216.04 1536.05 1221.04 1538.05 1227.04 1540.05 1231.04 1542.05 1234.04 1544.05 1238.04 1547.05 1242.04 1549.05 1246.04 1551.05 1249.04 1553.05 1253.04 1555.05 1257.04 1558.05 1260.04 1560.05 1264.04 1562.05 1267.04 1564.05 1269.04 1566.05 1271.04 1569.05 1273.04 1571.05 1275.04 1573.05 1277.04 1575.05 1279.04 1578.05 1281.04 1580.05 1283.04 1582.05 1285.04 1584.05 1287.04 1586.05 1289.04 1589.05 1289.04 1591.05 1289.04 1593.05 1290.04 1595.05 1290.04 1597.05 1291.04 1600.05 1291.04 1602.05 1291.04 1604.05 1292.04 1606.05 1292.04 1608.05 1292.04 1611.05 1293.04 1613.05 1292.04 1615.05 1290.04 1617.05 1289.04 1619.05 1288.04 1622.05 1287.04 1624.05 1286.04 1626.05 1285.04 1628.05 1284.04 1630.05 1283.04 1633.05 1282.04 1635.05 1281.04 1637.05 1279.04 1639.05 1276.04 1641.05 1274.04 1644.05 1271.04 1646.05 1269.04 1648.05 1267.04 1650.05 1264.04 1653.05 1262.04 1655.05 1260.04 1657.05 1258.04 1659.05 1255.04 1661.05 1252.04 1664.05 1248.04 1666.05 1245.04 1668.05 1241.04 1670.05 1238.04 1672.05 1234.04 1675.05 1231.04 1677.05 1227.04 1679.06 1224.04 1681.06 1221.04 1683.06 1217.04 1686.06 1213.04 1688.06 1208.04 1690.06 1203.04 1692.06 1199.04 1694.06 1194.04 1697.06 1190.04 1699.06 1185.04 1701.06 1181.04 1703.06 1177.04 1705.06 1172.04 1708.06 1168.04 1710.06 1165.04 1712.06 1163.04 1714.06 1160.04 1717.06 1157.04 1719.06 1155.04 1721.06 1152.04 1723.06 1149.04 1725.06 1147.04 1728.06 1144.04 1730.06 1142.04 1732.06 1139.04 1734.06 1138.04 1736.06 1137.04 1739.06 1136.04 1741.06 1135.04 1743.06 1134.04 1745.06 1133.04 1747.06 1132.04 1750.06 1131.04 1752.06 1130.04 1754.06 1129.04 1756.06 1129.04 1758.06 1129.04 1761.06 1130.04 1763.06 1130.04 1765.06 1131.04 1767.06 1131.04 1769.06 1132.04 1772.06 1132.04 1774.06 1133.04 1776.06 1133.04 1778.06 1134.04 1780.06 1134.04 1783.06 1136.04 1785.06 1138.04 1787.06 1140.04 1789.06 1142.04 1792.06 1143.04 1794.06 1145.04 1796.06 1147.04 1798.06 1149.04 1800.06 1151.04 1803.06 1152.04 1805.06 1154.04 1807.06 1157.04 1809.06 1160.04 1811.06 1164.04 1814.06 1167.04 1816.06 1170.04 1818.06 1173.04 1820.06 1176.04 1822.06 1179.04 1825.06 1182.04 1827.06 1184.04 1829.06 1187.04 1831.06 1189.04 1833.06 1190.04 1836.06 1191.04 1838.06 1193.04 1840.06 1194.04 1842.06 1195.04 1844.06 1197.04 1847.06 1198.04 1849.06 1199.04 1851.06 1201.04 1853.06 1202.04 1856.06 1202.04 1858.06 1201.04 1860.06 1201.04 1862.06 1201.04 1864.06 1201.04 1867.06 1201.04 1869.06 1200.04 1871.06 1200.04 1873.06 1200.04 1875.06 1200.04 1878.06 1200.04 1880.06 1198.04 1882.06 1196.04 1884.06 1195.04 1886.06 1193.04 1889.06 1192.04 1891.06 1190.04 1893.06 1189.04 1895.06 1187.04 1897.06 1186.04 1900.06 1184.04 1902.06 1183.04 1904.06 1180.04 1906.06 1177.04 1908.06 1174.04 1911.06 1171.04 1913.06 1168.04 1915.06 1166.04 1917.06 1163.04 1919.06 1160.04 1922.06 1158.04 1924.06 1155.04 1926.06 1152.04 1928.06 1151.04 1931.06 1150.04 1933.06 1149.04 1935.06 1148.04 1937.06 1147.04 1939.06 1145.04 1942.06 1144.04 1944.06 1143.04 1946.06 1142.04 1948.06 1141.04 1950.06 1140.04 1953.06 1141.04 1955.06 1141.04 1957.06 1141.04 1959.06 1142.04 1961.06 1142.04 1964.06 1143.04 1966.06 1143.04 1968.06 1143.04 1970.06 1144.04 1972.06 1144.04 1975.06 1144.04 1977.06 1146.04 1979.06 1148.04 1981.06 1150.04 1983.06 1152.04 1986.07 1153.04 1988.07 1155.04 1990.07 1157.04 1992.07 1158.04 1995.07 1160.04 1997.07 1162.04 1999.07 1163.04 2001.07 1167.04 2003.07 1170.04 2006.07 1173.04 2008.07 1176.04 2010.07 1179.04 2012.07 1181.04 2014.07 1184.04 2017.07 1187.04 2019.07 1190.04 2021.07 1193.04 2023.07 1196.04 2025.07 1197.04 2028.07 1198.04 2030.07 1200.04 2032.07 1201.04 2034.07 1202.04 2036.07 1203.04 2039.07 1205.04 2041.07 1206.04 2043.07 1207.04 2045.07 1208.04 2047.07 1209.04 2050.07 1209.04 2052.07 1209.04 2054.07 1209.04 2056.07 1208.04 2058.07 1208.04 2061.07 1208.04 2063.07 1207.04 2065.07 1207.04 2067.07 1207.04 2070.07 1207.04 2072.07 1206.04 2074.07 1205.04 2076.07 1203.04 2078.07 1201.04 2081.07 1200.04 2083.07 1198.04 2085.07 1196.04 2087.07 1195.04 2089.07 1193.04 2092.07 1192.04 2094.07 1190.04 2096.07 1189.04 2098.07 1186.04 2100.07 1183.04 2103.07 1180.04 2105.07 1177.04 2107.07 1174.04 2109.07 1171.04 2111.07 1168.04 2114.07 1166.04 2116.07 1163.04 2118.07 1160.04 2120.07 1158.04 2122.07 1156.04 2125.07 1155.04 2127.07 1154.04 2129.07 1153.04 2131.07 1152.04 2134.07 1151.04 2136.07 1149.04 2138.07 1148.04 2140.07 1147.04 2142.07 1146.04 2145.07 1145.04 2147.07 1145.04 2149.07 1146.04 2151.07 1146.04 2153.07 1146.04 2156.07 1147.04 2158.07 1147.04 2160.07 1147.04 2162.07 1148.04 2164.07 1148.04 2167.07 1148.04 2169.07 1149.04 2171.07 1151.04 2173.07 1152.04 2175.07 1154.04 2178.07 1156.04 2180.07 1157.04 2182.07 1159.04 2184.07 1161.04 2186.07 1162.04 2189.07 1164.04 2191.07 1166.04 2193.07 1167.04 2195.07 1170.04 2197.07 1173.04 2200.07 1176.04 2202.07 1179.04 2204.07 1182.04 2206.07 1185.04 2209.07 1188.04 2211.07 1191.04 2213.07 1194.04 2215.07 1196.04 2217.07 1199.04 2220.07 1200.04 2222.07 1202.04 2224.07 1203.04 2226.07 1204.04 2228.07 1205.04 2231.07 1207.04 2233.07 1208.04 2235.07 1209.04 2237.07 1210.04 2239.07 1211.04 2242.07 1212.04 2244.07 1212.04 2246.07 1212.04 2248.07 1212.04 2250.07 1211.04 2253.07 1211.04 2255.07 1211.04 2257.07 1210.04 2259.07 1210.04 2261.07 1210.04 2264.07 1209.04 2266.07 1209.04 2268.07 1207.04 2270.07 1206.04 2273.07 1204.04 2275.07 1202.04 2277.07 1201.04 2279.07 1199.04 2281.07 1197.04 2284.07 1196.04 2286.07 1194.04 2288.08 1193.04 2290.08 1191.04 2292.08 1188.04 2295.08 1185.04 2297.08 1182.04 2299.08 1179.04 2301.08 1176.04 2303.08 1174.04 2306.08 1171.04 2308.08 1168.04 2310.08 1165.04 2312.08 1163.04 2314.08 1160.04 2317.08 1159.04 2319.08 1157.04 2321.08 1156.04 2323.08 1155.04 2325.08 1154.04 2328.08 1153.04 2330.08 1151.04 2332.08 1150.04 2334.08 1149.04 2336.08 1148.04 2339.08 1147.04 2341.08 1147.04 2343.08 1148.04 2345.08 1148.04 2348.08 1148.04 2350.08 1149.04 2352.08 1149.04 2354.08 1149.04 2356.08 1150.04 2359.08 1150.04 2361.08 1150.04 2363.08 1151.04 2365.08 1152.04 2367.08 1154.04 2370.08 1156.04 2372.08 1157.04 2374.08 1159.04 2376.08 1161.04 2378.08 1162.04 2381.08 1164.04 2383.08 1166.04 2385.08 1167.04 2387.08 1169.04 2389.08 1172.04 2392.08 1175.04 2394.08 1178.04 2396.08 1181.04 2398.08 1184.04 2400.08 1187.04 2403.08 1189.04 2405.08 1192.04 2407.08 1195.04 2409.08 1198.04 2411.08 1201.04 2414.08 1202.04 2416.08 1203.04 2418.08 1204.04 2420.08 1205.04 2423.08 1207.04 2425.08 1208.04 2427.08 1209.04 2429.08 1210.04 2431.08 1211.04 2434.08 1213.04 2436.08 1214.04 2438.08 1213.04 2440.08 1213.04 2442.08 1213.04 2445.08 1212.04 2447.08 1212.04 2449.08 1212.04 2451.08 1212.04 2453.08 1211.04 2456.08 1211.04 2458.08 1211.04 2460.08 1210.04 2462.08 1209.04 2464.08 1207.04 2467.08 1205.04 2469.08 1203.04 2471.08 1202.04 2473.08 1200.04 2475.08 1199.04 2478.08 1197.04 2480.08 1195.04 2482.08 1194.04 2484.08 1192.04 2487.08 1189.04 2489.08 1186.04 2491.08 1183.04 2493.08 1180.04 2495.08 1177.04 2498.08 1175.04 2500.08 1172.04 2502.08 1169.04 2504.08 1166.04 2506.08 1163.04 2509.08 1161.04 2511.08 1159.04 2513.08 1158.04 2515.08 1157.04 2517.08 1156.04 2520.08 1155.04 2522.08 1153.04 2524.08 1152.04 2526.08 1151.04 2528.08 1150.04 2531.08 1149.04 2533.08 1148.04 2535.08 1148.04 2537.08 1148.04 2539.08 1149.04 2542.08 1149.04 2544.08 1149.04 2546.08 1150.04 2548.08 1150.04 2550.08 1150.04 2553.08 1151.04 2555.08 1151.04 2557.08 1151.04 2559.08 1153.04 2562.08 1155.04 2564.08 1156.04 2566.08 1158.04 2568.08 1160.04 2570.08 1162.04 2573.08 1163.04 2575.08 1165.04 2577.08 1166.04 2579.08 1168.04 2581.08 1170.04 2584.08 1173.04 2586.08 1176.04 2588.08 1179.04 2590.08 1181.04 2592.08 1184.04 2595.08 1187.04 2597.09 1190.04 2599.09 1193.04 2601.09 1196.04 2603.09 1198.04 2606.09 1201.04 2608.09 1202.04 2610.09 1204.04 2612.09 1205.04 2614.09 1206.04 2617.09 1207.04 2619.09 1208.04 2621.09 1210.04 2623.09 1211.04 2626.09 1212.04 2628.09 1213.04 2630.09 1214.04 2632.09 1214.04 2634.09 1214.04 2637.09 1213.04 2639.09 1213.04 2641.09 1213.04 2643.09 1212.04 2645.09 1212.04 2648.09 1212.04 2650.09 1211.04 2652.09 1211.04 2654.09 1211.04 2656.09 1209.04 2659.09 1207.04 2661.09 1206.04 2663.09 1204.04 2665.09 1202.04 2667.09 1201.04 2670.09 1199.04 2672.09 1197.04 2674.09 1196.04 2676.09 1194.04 2678.09 1193.04 2681.09 1190.04 2683.09 1187.04 2685.09 1184.04 2687.09 1181.04 2689.09 1178.04 2692.09 1175.04 2694.09 1172.04 2696.09 1169.04 2698.09 1167.04 2701.09 1164.04 2703.09 1161.04 2705.09 1160.04 2707.09 1159.04 2709.09 1157.04 2712.09 1156.04 2714.09 1155.04 2716.09 1154.04 2718.09 1153.04 2720.09 1151.04 2723.09 1150.04 2725.09 1149.04 2727.09 1148.04 2729.09 1148.04 2731.09 1149.04 2734.09 1149.04 2736.09 1149.04 2738.09 1150.04 2740.09 1150.04 2742.09 1150.04 2745.09 1151.04 2747.09 1151.04 2749.09 1151.04 2751.09 1152.04 2753.09 1153.04 2756.09 1155.04 2758.09 1157.04 2760.09 1158.04 2762.09 1160.04 2765.09 1162.04 2767.09 1163.04 2769.09 1165.04 2771.09 1167.04 2773.09 1168.04 2776.09 1170.04 2778.09 1173.04 2780.09 1176.04 2782.09 1179.04 2784.09 1182.04 2787.09 1185.04 2789.09 1187.04 2791.09 1190.04 2793.09 1193.04 2795.09 1196.04 2798.09 1199.04 2800.09 1201.04 2802.09 1203.04 2804.09 1204.04 2806.09 1205.04 2809.09 1206.04 2811.09 1207.04 2813.09 1209.04 2815.09 1210.04 2817.09 1211.04 2820.09 1212.04 2822.09 1213.04 2824.09 1214.04 2826.09 1214.04 2828.09 1214.04 2831.09 1213.04 2833.09 1213.04 2835.09 1213.04 2837.09 1213.04 2840.09 1212.04 2842.09 1212.04 2844.09 1212.04 2846.09 1211.04 2848.09 1211.04 2851.09 1209.04 2853.09 1208.04 2855.09 1206.04 2857.09 1204.04 2859.09 1202.04 2862.09 1201.04 2864.09 1199.04 2866.09 1198.04 2868.09 1196.04 2870.09 1194.04 2873.09 1193.04 2875.09 1190.04 2877.09 1187.04 2879.09 1184.04 2881.09 1181.04 2884.09 1178.04 2886.09 1175.04 2888.09 1172.04 2890.09 1169.04 2892.09 1167.04 2895.09 1164.04 2897.09 1161.04 2899.1 1160.04 2901.1 1159.04 2904.1 1158.04 2906.1 1156.04 2908.1 1155.04 2910.1 1154.04 2912.1 1153.04 2915.1 1152.04 2917.1 1150.04 2919.1 1149.04 2921.1 1148.04 2923.1 1149.04 2926.1 1149.04 2928.1 1149.04 2930.1 1150.04 2932.1 1150.04 2934.1 1150.04 2937.1 1150.04 2939.1 1151.04 2941.1 1151.04 2943.1 1151.04 2945.1 1152.04 2948.1 1153.04 2950.1 1155.04 2952.1 1157.04 2954.1 1159.04 2956.1 1160.04 2959.1 1162.04 2961.1 1164.04 2963.1 1165.04 2965.1 1167.04 2967.1 1168.04 2970.1 1170.04 2972.1 1173.04 2974.1 1176.04 2976.1 1179.04 2979.1 1182.04 2981.1 1185.04 2983.1 1188.04 2985.1 1190.04 2987.1 1193.04 2990.1 1196.04 2992.1 1199.04 2994.1 1201.04 2996.1 1203.04 2998.1 1204.04 3001.1 1205.04 3003.1 1206.04 3005.1 1208.04 3007.1 1209.04 3009.1 1210.04 3012.1 1211.04 3014.1 1212.04 3016.1 1213.04 3018.1 1215.04 3020.1 1214.04 3023.1 1214.04 3025.1 1214.04 3027.1 1213.04 3029.1 1213.04 3031.1 1213.04 3034.1 1212.04 3036.1 1212.04 3038.1 1212.04 3040.1 1211.04 3043.1 1211.04 3045.1 1209.04 3047.1 1208.04 3049.1 1206.04 3051.1 1204.04 3054.1 1203.04 3056.1 1201.04 3058.1 1199.04 3060.1 1198.04 3062.1 1196.04 3065.1 1194.04 3067.1 1193.04 3069.1 1190.04 3071.1 1187.04 3073.1 1184.04 3076.1 1181.04 3078.1 1178.04 3080.1 1175.04 3082.1 1172.04 3084.1 1170.04 3087.1 1167.04 3089.1 1164.04 3091.1 1161.04 3093.1 1160.04 3095.1 1159.04 3098.1 1158.04 3100.1 1156.04 3102.1 1155.04 3104.1 1154.04 3106.1 1153.04 3109.1 1152.04 3111.1 1151.04 3113.1 1149.04 3115.1 1148.04 3118.1 1149.04 3120.1 1149.04 3122.1 1149.04 3124.1 1150.04 3126.1 1150.04 3129.1 1150.04 3131.1 1151.04 3133.1 1151.04 3135.1 1151.04 3137.1 1151.04 3140.1 1152.04 3142.1 1153.04 3144.1 1155.04 3146.1 1157.04 3148.1 1159.04 3151.1 1160.04 3153.1 1162.04 3155.1 1164.04 3157.1 1165.04 3159.1 1167.04 3162.1 1168.04 3164.1 1170.04 3166.1 1173.04 3168.1 1176.04 3170.1 1179.04 3173.1 1182.04 3175.1 1185.04 3177.1 1188.04 3179.1 1190.04 3181.1 1193.04 3184.1 1196.04 3186.1 1199.04 3188.1 1202.04 3190.1 1203.04 3193.1 1204.04 3195.1 1205.04 3197.1 1206.04 3199.1 1208.04 3201.1 1209.04 3204.1 1210.04 3206.1 1211.04 3208.1 1212.04 3210.11 1213.04 3212.11 1215.04 3215.11 1214.04 3217.11 1214.04 3219.11 1214.04 3221.11 1213.04 3223.11 1213.04 3226.11 1213.04 3228.11 1212.04 3230.11 1212.04 3232.11 1212.04 3234.11 1211.04 3237.11 1211.04 3239.11 1209.04 3241.11 1208.04 3243.11 1206.04 3245.11 1204.04 3248.11 1203.04 3250.11 1201.04 3252.11 1199.04 3254.11 1198.04 3257.11 1196.04 3259.11 1194.04 3261.11 1193.04 3263.11 1190.04 3265.11 1187.04 3268.11 1184.04 3270.11 1181.04 3272.11 1178.04 3274.11 1175.04 3276.11 1172.04 3279.11 1170.04 3281.11 1167.04 3283.11 1164.04 3285.11 1161.04 3287.11 1160.04 3290.11 1159.04 3292.11 1158.04 3294.11 1156.04 3296.11 1155.04 3298.11 1154.04 3301.11 1153.04 3303.11 1152.04 3305.11 1151.04 3307.11 1149.04 3309.11 1148.04 3312.11 1149.04 3314.11 1149.04 3316.11 1149.04 3318.11 1150.04 3320.11 1150.04 3323.11 1150.04 3325.11 1151.04 3327.11 1151.04 3329.11 1151.04 3332.11 1151.04 3334.11 1152.04 3336 1154.04" stroke="#ED7D31" stroke-width="10.3125" stroke-linecap="round" stroke-linejoin="round" stroke-miterlimit="10" fill="none"/></g><g><path d="M1127 1471 1130.04 1471 1132.04 1471 1134.04 1471 1136.04 1471 1138.04 1471 1141.04 1471 1143.04 1471 1145.04 1471 1147.04 1471 1149.04 1471 1152.04 1471 1154.04 1471 1156.04 1471 1158.04 1471 1161.04 1471 1163.04 1471 1165.04 1471 1167.04 1471 1169.04 1471 1172.04 1471 1174.04 1471 1176.04 1471 1178.04 1471 1180.04 1471 1183.04 1471 1185.04 1471 1187.04 1471 1189.04 1471 1191.04 1471 1194.04 1471 1196.04 1471 1198.04 1471 1200.04 1471 1202.04 1471 1205.04 1471 1207.04 1471 1209.04 1471 1211.04 1471 1213.04 1471 1216.04 1471 1218.04 1471 1220.04 1471 1222.04 1471 1225.04 1471 1227.04 1471 1229.04 1471 1231.04 1471 1233.04 1471 1236.04 1471 1238.04 1471 1240.04 1471 1242.04 1471 1244.04 1471 1247.04 1471 1249.04 1471 1251.04 1471 1253.04 1471 1255.04 1471 1258.04 1471 1260.04 1471 1262.04 1471 1264.04 1471 1266.04 1471 1269.04 1471 1271.04 1471 1273.04 1471 1275.04 1471 1277.04 1471 1280.04 1471 1282.04 1471 1284.04 1471 1286.04 1471 1288.04 1471 1291.04 1471 1293.04 1471 1295.04 1471 1297.04 1471 1300.04 1471 1302.04 1471 1304.04 1471 1306.04 1471 1308.04 1471 1311.04 1471 1313.04 1471 1315.04 1471 1317.04 1471 1319.04 1471 1322.04 1471 1324.04 1471 1326.04 1471 1328.04 1471 1330.04 1471 1333.04 1471 1335.04 1471 1337.04 1471 1339.04 1471 1341.04 1471 1344.04 1471 1346.04 1471 1348.04 1471 1350.04 1471 1352.04 1471 1355.04 1471 1357.04 1471 1359.04 1471 1361.04 1471 1364.04 1471 1366.04 1471 1368.04 1471 1370.04 1471 1372.04 1471 1375.05 1471 1377.05 1471 1379.05 1471 1381.05 1471 1383.05 1471 1386.05 1471 1388.05 1471 1390.05 1471 1392.05 1471 1394.05 1471 1397.05 1471 1399.05 1471 1401.05 1471 1403.05 1471 1405.05 1471 1408.05 1471 1410.05 1471 1412.05 1471 1414.05 1471 1416.05 1471 1419.05 1471 1421.05 1471 1423.05 1471 1425.05 1471 1427.05 1471 1430.05 1471 1432.05 1471 1434.05 1471 1436.05 1471 1439.05 1471 1441.05 1471 1443.05 1471 1445.05 1471 1447.05 1471 1450.05 1471 1452.05 1471 1454.05 1471 1456.05 1471 1458.05 1471 1461.05 1471 1463.05 1471 1465.05 1471 1467.05 1471 1469.05 1471 1472.05 1471 1474.05 1471 1476.05 1471 1478.05 1471 1480.05 1471 1483.05 1471 1485.05 1471 1487.05 1471 1489.05 1471 1491.05 1471 1494.05 1471 1496.05 1471 1498.05 1471 1500.05 1471 1503.05 1471 1505.05 1471 1507.05 1471 1509.05 1471 1511.05 1471 1514.05 1471 1516.05 1471 1518.05 1471 1520.05 1471 1522.05 1471 1525.05 1471 1527.05 1471 1529.05 1471 1531.05 1471 1533.05 1471 1536.05 1471 1538.05 1471 1540.05 1471 1542.05 1471 1544.05 1471 1547.05 1471 1549.05 1471 1551.05 1471 1553.05 1471 1555.05 1471 1558.05 1471 1560.05 1471 1562.05 1471 1564.05 1471 1566.05 1471 1569.05 1471 1571.05 1471 1573.05 1471 1575.05 1471 1578.05 1471 1580.05 1471 1582.05 1471 1584.05 1471 1586.05 1471 1589.05 1471 1591.05 1471 1593.05 1471 1595.05 1471 1597.05 1471 1600.05 1471 1602.05 1471 1604.05 1471 1606.05 1471 1608.05 1471 1611.05 1471 1613.05 1471 1615.05 1471 1617.05 1471 1619.05 1471 1622.05 1471 1624.05 1471 1626.05 1471 1628.05 1471 1630.05 1471 1633.05 1471 1635.05 1471 1637.05 1471 1639.05 1471 1641.05 1471 1644.05 1471 1646.05 1471 1648.05 1471 1650.05 1471 1653.05 1471 1655.05 1471 1657.05 1471 1659.05 1471 1661.05 1471 1664.05 1471 1666.05 1471 1668.05 1471 1670.05 1471 1672.05 1471 1675.05 1471 1677.05 1471 1679.06 1471 1681.06 1471 1683.06 1471 1686.06 1471 1688.06 1471 1690.06 1471 1692.06 1471 1694.06 1471 1697.06 1471 1699.06 1471 1701.06 1471 1703.06 1471 1705.06 1471 1708.06 1471 1710.06 1471 1712.06 1471 1714.06 1471 1717.06 1471 1719.06 1471 1721.06 1471 1723.06 1471 1725.06 1471 1728.06 1471 1730.06 1471 1732.06 1471 1734.06 1471 1736.06 1471 1739.06 1471 1741.06 1471 1743.06 1471 1745.06 1471 1747.06 1471 1750.06 1471 1752.06 1471 1754.06 1471 1756.06 1471 1758.06 1471 1761.06 1471 1763.06 1471 1765.06 1471 1767.06 1471 1769.06 1471 1772.06 1471 1774.06 1471 1776.06 1471 1778.06 1471 1780.06 1471 1783.06 1471 1785.06 1471 1787.06 1471 1789.06 1471 1792.06 1471 1794.06 1471 1796.06 1471 1798.06 1471 1800.06 1471 1803.06 1471 1805.06 1471 1807.06 1471 1809.06 1471 1811.06 1471 1814.06 1471 1816.06 1471 1818.06 1471 1820.06 1471 1822.06 1471 1825.06 1471 1827.06 1471 1829.06 1471 1831.06 1471 1833.06 1471 1836.06 1471 1838.06 1471 1840.06 1471 1842.06 1471 1844.06 1471 1847.06 1471 1849.06 1471 1851.06 1471 1853.06 1471 1856.06 1471 1858.06 1471 1860.06 1471 1862.06 1471 1864.06 1471 1867.06 1471 1869.06 1471 1871.06 1471 1873.06 1471 1875.06 1471 1878.06 1471 1880.06 1471 1882.06 1471 1884.06 1471 1886.06 1471 1889.06 1471 1891.06 1471 1893.06 1471 1895.06 1471 1897.06 1471 1900.06 1471 1902.06 1471 1904.06 1471 1906.06 1471 1908.06 1471 1911.06 1471 1913.06 1471 1915.06 1471 1917.06 1471 1919.06 1471 1922.06 1471 1924.06 1471 1926.06 1471 1928.06 1471 1931.06 1471 1933.06 1471 1935.06 1471 1937.06 1471 1939.06 1471 1942.06 1471 1944.06 1471 1946.06 1471 1948.06 1471 1950.06 1471 1953.06 1471 1955.06 1471 1957.06 1471 1959.06 1471 1961.06 1471 1964.06 1471 1966.06 1471 1968.06 1471 1970.06 1471 1972.06 1471 1975.06 1471 1977.06 1471 1979.06 1471 1981.06 1471 1983.06 1471 1986.07 1471 1988.07 1471 1990.07 1471 1992.07 1471 1995.07 1471 1997.07 1471 1999.07 1471 2001.07 1471 2003.07 1471 2006.07 1471 2008.07 1471 2010.07 1471 2012.07 1471 2014.07 1471 2017.07 1471 2019.07 1471 2021.07 1471 2023.07 1471 2025.07 1471 2028.07 1471 2030.07 1471 2032.07 1471 2034.07 1471 2036.07 1471 2039.07 1471 2041.07 1471 2043.07 1471 2045.07 1471 2047.07 1471 2050.07 1471 2052.07 1471 2054.07 1471 2056.07 1471 2058.07 1471 2061.07 1471 2063.07 1471 2065.07 1471 2067.07 1471 2070.07 1471 2072.07 1471 2074.07 1471 2076.07 1471 2078.07 1471 2081.07 1471 2083.07 1471 2085.07 1471 2087.07 1471 2089.07 1471 2092.07 1471 2094.07 1471 2096.07 1471 2098.07 1471 2100.07 1471 2103.07 1471 2105.07 1471 2107.07 1471 2109.07 1471 2111.07 1471 2114.07 1471 2116.07 1471 2118.07 1471 2120.07 1471 2122.07 1471 2125.07 1471 2127.07 1471 2129.07 1471 2131.07 1471 2134.07 1471 2136.07 1471 2138.07 1471 2140.07 1471 2142.07 1471 2145.07 1471 2147.07 1471 2149.07 1471 2151.07 1471 2153.07 1471 2156.07 1471 2158.07 1471 2160.07 1471 2162.07 1471 2164.07 1471 2167.07 1471 2169.07 1471 2171.07 1471 2173.07 1471 2175.07 1471 2178.07 1471 2180.07 1471 2182.07 1471 2184.07 1471 2186.07 1471 2189.07 1471 2191.07 1471 2193.07 1471 2195.07 1471 2197.07 1471 2200.07 1471 2202.07 1471 2204.07 1471 2206.07 1471 2209.07 1471 2211.07 1471 2213.07 1471 2215.07 1471 2217.07 1471 2220.07 1471 2222.07 1471 2224.07 1471 2226.07 1471 2228.07 1471 2231.07 1471 2233.07 1471 2235.07 1471 2237.07 1471 2239.07 1471 2242.07 1471 2244.07 1471 2246.07 1471 2248.07 1471 2250.07 1471 2253.07 1471 2255.07 1471 2257.07 1471 2259.07 1471 2261.07 1471 2264.07 1471 2266.07 1471 2268.07 1471 2270.07 1471 2273.07 1471 2275.07 1471 2277.07 1471 2279.07 1471 2281.07 1471 2284.07 1471 2286.07 1471 2288.08 1471 2290.08 1471 2292.08 1471 2295.08 1471 2297.08 1471 2299.08 1471 2301.08 1471 2303.08 1471 2306.08 1471 2308.08 1471 2310.08 1471 2312.08 1471 2314.08 1471 2317.08 1471 2319.08 1471 2321.08 1471 2323.08 1471 2325.08 1471 2328.08 1471 2330.08 1471 2332.08 1471 2334.08 1471 2336.08 1471 2339.08 1471 2341.08 1471 2343.08 1471 2345.08 1471 2348.08 1471 2350.08 1471 2352.08 1471 2354.08 1471 2356.08 1471 2359.08 1471 2361.08 1471 2363.08 1471 2365.08 1471 2367.08 1471 2370.08 1471 2372.08 1471 2374.08 1471 2376.08 1471 2378.08 1471 2381.08 1471 2383.08 1471 2385.08 1471 2387.08 1471 2389.08 1471 2392.08 1471 2394.08 1471 2396.08 1471 2398.08 1471 2400.08 1471 2403.08 1471 2405.08 1471 2407.08 1471 2409.08 1471 2411.08 1471 2414.08 1471 2416.08 1471 2418.08 1471 2420.08 1471 2423.08 1471 2425.08 1471 2427.08 1471 2429.08 1471 2431.08 1471 2434.08 1471 2436.08 1471 2438.08 1471 2440.08 1471 2442.08 1471 2445.08 1471 2447.08 1471 2449.08 1471 2451.08 1471 2453.08 1471 2456.08 1471 2458.08 1471 2460.08 1471 2462.08 1471 2464.08 1471 2467.08 1471 2469.08 1471 2471.08 1471 2473.08 1471 2475.08 1471 2478.08 1471 2480.08 1471 2482.08 1471 2484.08 1471 2487.08 1471 2489.08 1471 2491.08 1471 2493.08 1471 2495.08 1471 2498.08 1471 2500.08 1471 2502.08 1471 2504.08 1471 2506.08 1471 2509.08 1471 2511.08 1471 2513.08 1471 2515.08 1471 2517.08 1471 2520.08 1471 2522.08 1471 2524.08 1471 2526.08 1471 2528.08 1471 2531.08 1471 2533.08 1471 2535.08 1471 2537.08 1471 2539.08 1471 2542.08 1471 2544.08 1471 2546.08 1471 2548.08 1471 2550.08 1471 2553.08 1471 2555.08 1471 2557.08 1471 2559.08 1471 2562.08 1471 2564.08 1471 2566.08 1471 2568.08 1471 2570.08 1471 2573.08 1471 2575.08 1471 2577.08 1471 2579.08 1471 2581.08 1471 2584.08 1471 2586.08 1471 2588.08 1471 2590.08 1471 2592.08 1471 2595.08 1471 2597.09 1471 2599.09 1471 2601.09 1471 2603.09 1471 2606.09 1471 2608.09 1471 2610.09 1471 2612.09 1471 2614.09 1471 2617.09 1471 2619.09 1471 2621.09 1471 2623.09 1471 2626.09 1471 2628.09 1471 2630.09 1471 2632.09 1471 2634.09 1471 2637.09 1471 2639.09 1471 2641.09 1471 2643.09 1471 2645.09 1471 2648.09 1471 2650.09 1471 2652.09 1471 2654.09 1471 2656.09 1471 2659.09 1471 2661.09 1471 2663.09 1471 2665.09 1471 2667.09 1471 2670.09 1471 2672.09 1471 2674.09 1471 2676.09 1471 2678.09 1471 2681.09 1471 2683.09 1471 2685.09 1471 2687.09 1471 2689.09 1471 2692.09 1471 2694.09 1471 2696.09 1471 2698.09 1471 2701.09 1471 2703.09 1471 2705.09 1471 2707.09 1471 2709.09 1471 2712.09 1471 2714.09 1471 2716.09 1471 2718.09 1471 2720.09 1471 2723.09 1471 2725.09 1471 2727.09 1471 2729.09 1471 2731.09 1471 2734.09 1471 2736.09 1471 2738.09 1471 2740.09 1471 2742.09 1471 2745.09 1471 2747.09 1471 2749.09 1471 2751.09 1471 2753.09 1471 2756.09 1471 2758.09 1471 2760.09 1471 2762.09 1471 2765.09 1471 2767.09 1471 2769.09 1471 2771.09 1471 2773.09 1471 2776.09 1471 2778.09 1471 2780.09 1471 2782.09 1471 2784.09 1471 2787.09 1471 2789.09 1471 2791.09 1471 2793.09 1471 2795.09 1471 2798.09 1471 2800.09 1471 2802.09 1471 2804.09 1471 2806.09 1471 2809.09 1471 2811.09 1471 2813.09 1471 2815.09 1471 2817.09 1471 2820.09 1471 2822.09 1471 2824.09 1471 2826.09 1471 2828.09 1471 2831.09 1471 2833.09 1471 2835.09 1471 2837.09 1471 2840.09 1471 2842.09 1471 2844.09 1471 2846.09 1471 2848.09 1471 2851.09 1471 2853.09 1471 2855.09 1471 2857.09 1471 2859.09 1471 2862.09 1471 2864.09 1471 2866.09 1471 2868.09 1471 2870.09 1471 2873.09 1471 2875.09 1471 2877.09 1471 2879.09 1471 2881.09 1471 2884.09 1471 2886.09 1471 2888.09 1471 2890.09 1471 2892.09 1471 2895.09 1471 2897.09 1471 2899.1 1471 2901.1 1471 2904.1 1471 2906.1 1471 2908.1 1471 2910.1 1471 2912.1 1471 2915.1 1471 2917.1 1471 2919.1 1471 2921.1 1471 2923.1 1471 2926.1 1471 2928.1 1471 2930.1 1471 2932.1 1471 2934.1 1471 2937.1 1471 2939.1 1471 2941.1 1471 2943.1 1471 2945.1 1471 2948.1 1471 2950.1 1471 2952.1 1471 2954.1 1471 2956.1 1471 2959.1 1471 2961.1 1471 2963.1 1471 2965.1 1471 2967.1 1471 2970.1 1471 2972.1 1471 2974.1 1471 2976.1 1471 2979.1 1471 2981.1 1471 2983.1 1471 2985.1 1471 2987.1 1471 2990.1 1471 2992.1 1471 2994.1 1471 2996.1 1471 2998.1 1471 3001.1 1471 3003.1 1471 3005.1 1471 3007.1 1471 3009.1 1471 3012.1 1471 3014.1 1471 3016.1 1471 3018.1 1471 3020.1 1471 3023.1 1471 3025.1 1471 3027.1 1471 3029.1 1471 3031.1 1471 3034.1 1471 3036.1 1471 3038.1 1471 3040.1 1471 3043.1 1471 3045.1 1471 3047.1 1471 3049.1 1471 3051.1 1471 3054.1 1471 3056.1 1471 3058.1 1471 3060.1 1471 3062.1 1471 3065.1 1471 3067.1 1471 3069.1 1471 3071.1 1471 3073.1 1471 3076.1 1471 3078.1 1471 3080.1 1471 3082.1 1471 3084.1 1471 3087.1 1471 3089.1 1471 3091.1 1471 3093.1 1471 3095.1 1471 3098.1 1471 3100.1 1471 3102.1 1471 3104.1 1471 3106.1 1471 3109.1 1471 3111.1 1471 3113.1 1471 3115.1 1471 3118.1 1471 3120.1 1471 3122.1 1471 3124.1 1471 3126.1 1471 3129.1 1471 3131.1 1471 3133.1 1471 3135.1 1471 3137.1 1471 3140.1 1471 3142.1 1471 3144.1 1471 3146.1 1471 3148.1 1471 3151.1 1471 3153.1 1471 3155.1 1471 3157.1 1471 3159.1 1471 3162.1 1471 3164.1 1471 3166.1 1471 3168.1 1471 3170.1 1471 3173.1 1471 3175.1 1471 3177.1 1471 3179.1 1471 3181.1 1471 3184.1 1471 3186.1 1471 3188.1 1471 3190.1 1471 3193.1 1471 3195.1 1471 3197.1 1471 3199.1 1471 3201.1 1471 3204.1 1471 3206.1 1471 3208.1 1471 3210.11 1471 3212.11 1471 3215.11 1471 3217.11 1471 3219.11 1471 3221.11 1471 3223.11 1471 3226.11 1471 3228.11 1471 3230.11 1471 3232.11 1471 3234.11 1471 3237.11 1471 3239.11 1471 3241.11 1471 3243.11 1471 3245.11 1471 3248.11 1471 3250.11 1471 3252.11 1471 3254.11 1471 3257.11 1471 3259.11 1471 3261.11 1471 3263.11 1471 3265.11 1471 3268.11 1471 3270.11 1471 3272.11 1471 3274.11 1471 3276.11 1471 3279.11 1471 3281.11 1471 3283.11 1471 3285.11 1471 3287.11 1471 3290.11 1471 3292.11 1471 3294.11 1471 3296.11 1471 3298.11 1471 3301.11 1471 3303.11 1471 3305.11 1471 3307.11 1471 3309.11 1471 3312.11 1471 3314.11 1471 3316.11 1471 3318.11 1471 3320.11 1471 3323.11 1471 3325.11 1471 3327.11 1471 3329.11 1471 3332.11 1471 3334.11 1471 3336 1471" stroke="#A5A5A5" stroke-width="10.3125" stroke-linecap="round" stroke-linejoin="round" stroke-miterlimit="10" fill="none"/></g><g><path d="M1127 1471.05 1130.04 1471.05 1132.04 1471.05 1134.04 1471.05 1136.04 1471.05 1138.04 1471.05 1141.04 1471.05 1143.04 1471.05 1145.04 1471.05 1147.04 1471.05 1149.04 1471.05 1152.04 1326.04 1154.04 1326.04 1156.04 1326.04 1158.04 1326.04 1161.04 1326.04 1163.04 1326.04 1165.04 1326.04 1167.04 1326.04 1169.04 1326.04 1172.04 1326.04 1174.04 1326.04 1176.04 1181.04 1178.04 1181.04 1180.04 1181.04 1183.04 1181.04 1185.04 1181.04 1187.04 1181.04 1189.04 1181.04 1191.04 1181.04 1194.04 1181.04 1196.04 1181.04 1198.04 1181.04 1200.04 1037.03 1202.04 1037.03 1205.04 1037.03 1207.04 1037.03 1209.04 1037.03 1211.04 1037.03 1213.04 1037.03 1216.04 1037.03 1218.04 1037.03 1220.04 1037.03 1222.04 1037.03 1225.04 892.029 1227.04 892.029 1229.04 892.029 1231.04 892.029 1233.04 892.029 1236.04 892.029 1238.04 892.029 1240.04 892.029 1242.04 892.029 1244.04 892.029 1247.04 892.029 1249.04 747.025 1251.04 747.025 1253.04 747.025 1255.04 747.025 1258.04 747.025 1260.04 747.025 1262.04 747.025 1264.04 747.025 1266.04 747.025 1269.04 747.025 1271.04 747.025 1273.04 602.02 1275.04 602.02 1277.04 602.02 1280.04 602.02 1282.04 602.02 1284.04 602.02 1286.04 602.02 1288.04 602.02 1291.04 602.02 1293.04 602.02 1295.04 602.02 1297.04 457 1300.04 457 1302.04 457 1304.04 457 1306.04 457 1308.04 457 1311.04 457 1313.04 457 1315.04 457 1317.04 457 1319.04 457 1322.04 602.02 1324.04 602.02 1326.04 602.02 1328.04 602.02 1330.04 602.02 1333.04 602.02 1335.04 602.02 1337.04 602.02 1339.04 602.02 1341.04 602.02 1344.04 602.02 1346.04 747.025 1348.04 747.025 1350.04 747.025 1352.04 747.025 1355.04 747.025 1357.04 747.025 1359.04 747.025 1361.04 747.025 1364.04 747.025 1366.04 747.025 1368.04 747.025 1370.04 892.029 1372.04 892.029 1375.05 892.029 1377.05 892.029 1379.05 892.029 1381.05 892.029 1383.05 892.029 1386.05 892.029 1388.05 892.029 1390.05 892.029 1392.05 892.029 1394.05 1037.03 1397.05 1037.03 1399.05 1037.03 1401.05 1037.03 1403.05 1037.03 1405.05 1037.03 1408.05 1037.03 1410.05 1037.03 1412.05 1037.03 1414.05 1037.03 1416.05 1037.03 1419.05 1181.04 1421.05 1181.04 1423.05 1181.04 1425.05 1181.04 1427.05 1181.04 1430.05 1181.04 1432.05 1181.04 1434.05 1181.04 1436.05 1181.04 1439.05 1181.04 1441.05 1181.04 1443.05 1326.04 1445.05 1326.04 1447.05 1326.04 1450.05 1326.04 1452.05 1326.04 1454.05 1326.04 1456.05 1326.04 1458.05 1326.04 1461.05 1326.04 1463.05 1326.04 1465.05 1326.04 1467.05 1471.05 1469.05 1471.05 1472.05 1471.05 1474.05 1471.05 1476.05 1471.05 1478.05 1471.05 1480.05 1471.05 1483.05 1471.05 1485.05 1471.05 1487.05 1471.05 1489.05 1471.05 1491.05 1616.05 1494.05 1616.05 1496.05 1616.05 1498.05 1616.05 1500.05 1616.05 1503.05 1616.05 1505.05 1616.05 1507.05 1616.05 1509.05 1616.05 1511.05 1616.05 1514.05 1616.05 1516.05 1761 1518.05 1761 1520.05 1761 1522.05 1761 1525.05 1761 1527.05 1761 1529.05 1761 1531.05 1761 1533.05 1761 1536.05 1761 1538.05 1761 1540.05 1616.05 1542.05 1616.05 1544.05 1616.05 1547.05 1616.05 1549.05 1616.05 1551.05 1616.05 1553.05 1616.05 1555.05 1616.05 1558.05 1616.05 1560.05 1616.05 1562.05 1616.05 1564.05 1471.05 1566.05 1471.05 1569.05 1471.05 1571.05 1471.05 1573.05 1471.05 1575.05 1471.05 1578.05 1471.05 1580.05 1471.05 1582.05 1471.05 1584.05 1471.05 1586.05 1471.05 1589.05 1326.04 1591.05 1326.04 1593.05 1326.04 1595.05 1326.04 1597.05 1326.04 1600.05 1326.04 1602.05 1326.04 1604.05 1326.04 1606.05 1326.04 1608.05 1326.04 1611.05 1326.04 1613.05 1181.04 1615.05 1181.04 1617.05 1181.04 1619.05 1181.04 1622.05 1181.04 1624.05 1181.04 1626.05 1181.04 1628.05 1181.04 1630.05 1181.04 1633.05 1181.04 1635.05 1181.04 1637.05 1037.03 1639.05 1037.03 1641.05 1037.03 1644.05 1037.03 1646.05 1037.03 1648.05 1037.03 1650.05 1037.03 1653.05 1037.03 1655.05 1037.03 1657.05 1037.03 1659.05 1037.03 1661.05 892.029 1664.05 892.029 1666.05 892.029 1668.05 892.029 1670.05 892.029 1672.05 892.029 1675.05 892.029 1677.05 892.029 1679.06 892.029 1681.06 892.029 1683.06 892.029 1686.06 747.025 1688.06 747.025 1690.06 747.025 1692.06 747.025 1694.06 747.025 1697.06 747.025 1699.06 747.025 1701.06 747.025 1703.06 747.025 1705.06 747.025 1708.06 747.025 1710.06 892.029 1712.06 892.029 1714.06 892.029 1717.06 892.029 1719.06 892.029 1721.06 892.029 1723.06 892.029 1725.06 892.029 1728.06 892.029 1730.06 892.029 1732.06 892.029 1734.06 1037.03 1736.06 1037.03 1739.06 1037.03 1741.06 1037.03 1743.06 1037.03 1745.06 1037.03 1747.06 1037.03 1750.06 1037.03 1752.06 1037.03 1754.06 1037.03 1756.06 1037.03 1758.06 1181.04 1761.06 1181.04 1763.06 1181.04 1765.06 1181.04 1767.06 1181.04 1769.06 1181.04 1772.06 1181.04 1774.06 1181.04 1776.06 1181.04 1778.06 1181.04 1780.06 1181.04 1783.06 1326.04 1785.06 1326.04 1787.06 1326.04 1789.06 1326.04 1792.06 1326.04 1794.06 1326.04 1796.06 1326.04 1798.06 1326.04 1800.06 1326.04 1803.06 1326.04 1805.06 1326.04 1807.06 1471.05 1809.06 1471.05 1811.06 1471.05 1814.06 1471.05 1816.06 1471.05 1818.06 1471.05 1820.06 1471.05 1822.06 1471.05 1825.06 1471.05 1827.06 1471.05 1829.06 1471.05 1831.06 1326.04 1833.06 1326.04 1836.06 1326.04 1838.06 1326.04 1840.06 1326.04 1842.06 1326.04 1844.06 1326.04 1847.06 1326.04 1849.06 1326.04 1851.06 1326.04 1853.06 1326.04 1856.06 1181.04 1858.06 1181.04 1860.06 1181.04 1862.06 1181.04 1864.06 1181.04 1867.06 1181.04 1869.06 1181.04 1871.06 1181.04 1873.06 1181.04 1875.06 1181.04 1878.06 1181.04 1880.06 1037.03 1882.06 1037.03 1884.06 1037.03 1886.06 1037.03 1889.06 1037.03 1891.06 1037.03 1893.06 1037.03 1895.06 1037.03 1897.06 1037.03 1900.06 1037.03 1902.06 1037.03 1904.06 892.029 1906.06 892.029 1908.06 892.029 1911.06 892.029 1913.06 892.029 1915.06 892.029 1917.06 892.029 1919.06 892.029 1922.06 892.029 1924.06 892.029 1926.06 892.029 1928.06 1037.03 1931.06 1037.03 1933.06 1037.03 1935.06 1037.03 1937.06 1037.03 1939.06 1037.03 1942.06 1037.03 1944.06 1037.03 1946.06 1037.03 1948.06 1037.03 1950.06 1037.03 1953.06 1181.04 1955.06 1181.04 1957.06 1181.04 1959.06 1181.04 1961.06 1181.04 1964.06 1181.04 1966.06 1181.04 1968.06 1181.04 1970.06 1181.04 1972.06 1181.04 1975.06 1181.04 1977.06 1326.04 1979.06 1326.04 1981.06 1326.04 1983.06 1326.04 1986.07 1326.04 1988.07 1326.04 1990.07 1326.04 1992.07 1326.04 1995.07 1326.04 1997.07 1326.04 1999.07 1326.04 2001.07 1471.05 2003.07 1471.05 2006.07 1471.05 2008.07 1471.05 2010.07 1471.05 2012.07 1471.05 2014.07 1471.05 2017.07 1471.05 2019.07 1471.05 2021.07 1471.05 2023.07 1471.05 2025.07 1326.04 2028.07 1326.04 2030.07 1326.04 2032.07 1326.04 2034.07 1326.04 2036.07 1326.04 2039.07 1326.04 2041.07 1326.04 2043.07 1326.04 2045.07 1326.04 2047.07 1326.04 2050.07 1181.04 2052.07 1181.04 2054.07 1181.04 2056.07 1181.04 2058.07 1181.04 2061.07 1181.04 2063.07 1181.04 2065.07 1181.04 2067.07 1181.04 2070.07 1181.04 2072.07 1181.04 2074.07 1037.03 2076.07 1037.03 2078.07 1037.03 2081.07 1037.03 2083.07 1037.03 2085.07 1037.03 2087.07 1037.03 2089.07 1037.03 2092.07 1037.03 2094.07 1037.03 2096.07 1037.03 2098.07 892.029 2100.07 892.029 2103.07 892.029 2105.07 892.029 2107.07 892.029 2109.07 892.029 2111.07 892.029 2114.07 892.029 2116.07 892.029 2118.07 892.029 2120.07 892.029 2122.07 1037.03 2125.07 1037.03 2127.07 1037.03 2129.07 1037.03 2131.07 1037.03 2134.07 1037.03 2136.07 1037.03 2138.07 1037.03 2140.07 1037.03 2142.07 1037.03 2145.07 1037.03 2147.07 1181.04 2149.07 1181.04 2151.07 1181.04 2153.07 1181.04 2156.07 1181.04 2158.07 1181.04 2160.07 1181.04 2162.07 1181.04 2164.07 1181.04 2167.07 1181.04 2169.07 1181.04 2171.07 1326.04 2173.07 1326.04 2175.07 1326.04 2178.07 1326.04 2180.07 1326.04 2182.07 1326.04 2184.07 1326.04 2186.07 1326.04 2189.07 1326.04 2191.07 1326.04 2193.07 1326.04 2195.07 1471.05 2197.07 1471.05 2200.07 1471.05 2202.07 1471.05 2204.07 1471.05 2206.07 1471.05 2209.07 1471.05 2211.07 1471.05 2213.07 1471.05 2215.07 1471.05 2217.07 1471.05 2220.07 1326.04 2222.07 1326.04 2224.07 1326.04 2226.07 1326.04 2228.07 1326.04 2231.07 1326.04 2233.07 1326.04 2235.07 1326.04 2237.07 1326.04 2239.07 1326.04 2242.07 1326.04 2244.07 1181.04 2246.07 1181.04 2248.07 1181.04 2250.07 1181.04 2253.07 1181.04 2255.07 1181.04 2257.07 1181.04 2259.07 1181.04 2261.07 1181.04 2264.07 1181.04 2266.07 1181.04 2268.07 1037.03 2270.07 1037.03 2273.07 1037.03 2275.07 1037.03 2277.07 1037.03 2279.07 1037.03 2281.07 1037.03 2284.07 1037.03 2286.07 1037.03 2288.08 1037.03 2290.08 1037.03 2292.08 892.029 2295.08 892.029 2297.08 892.029 2299.08 892.029 2301.08 892.029 2303.08 892.029 2306.08 892.029 2308.08 892.029 2310.08 892.029 2312.08 892.029 2314.08 892.029 2317.08 1037.03 2319.08 1037.03 2321.08 1037.03 2323.08 1037.03 2325.08 1037.03 2328.08 1037.03 2330.08 1037.03 2332.08 1037.03 2334.08 1037.03 2336.08 1037.03 2339.08 1037.03 2341.08 1181.04 2343.08 1181.04 2345.08 1181.04 2348.08 1181.04 2350.08 1181.04 2352.08 1181.04 2354.08 1181.04 2356.08 1181.04 2359.08 1181.04 2361.08 1181.04 2363.08 1181.04 2365.08 1326.04 2367.08 1326.04 2370.08 1326.04 2372.08 1326.04 2374.08 1326.04 2376.08 1326.04 2378.08 1326.04 2381.08 1326.04 2383.08 1326.04 2385.08 1326.04 2387.08 1326.04 2389.08 1471.05 2392.08 1471.05 2394.08 1471.05 2396.08 1471.05 2398.08 1471.05 2400.08 1471.05 2403.08 1471.05 2405.08 1471.05 2407.08 1471.05 2409.08 1471.05 2411.08 1471.05 2414.08 1326.04 2416.08 1326.04 2418.08 1326.04 2420.08 1326.04 2423.08 1326.04 2425.08 1326.04 2427.08 1326.04 2429.08 1326.04 2431.08 1326.04 2434.08 1326.04 2436.08 1326.04 2438.08 1181.04 2440.08 1181.04 2442.08 1181.04 2445.08 1181.04 2447.08 1181.04 2449.08 1181.04 2451.08 1181.04 2453.08 1181.04 2456.08 1181.04 2458.08 1181.04 2460.08 1181.04 2462.08 1037.03 2464.08 1037.03 2467.08 1037.03 2469.08 1037.03 2471.08 1037.03 2473.08 1037.03 2475.08 1037.03 2478.08 1037.03 2480.08 1037.03 2482.08 1037.03 2484.08 1037.03 2487.08 892.029 2489.08 892.029 2491.08 892.029 2493.08 892.029 2495.08 892.029 2498.08 892.029 2500.08 892.029 2502.08 892.029 2504.08 892.029 2506.08 892.029 2509.08 892.029 2511.08 1037.03 2513.08 1037.03 2515.08 1037.03 2517.08 1037.03 2520.08 1037.03 2522.08 1037.03 2524.08 1037.03 2526.08 1037.03 2528.08 1037.03 2531.08 1037.03 2533.08 1037.03 2535.08 1181.04 2537.08 1181.04 2539.08 1181.04 2542.08 1181.04 2544.08 1181.04 2546.08 1181.04 2548.08 1181.04 2550.08 1181.04 2553.08 1181.04 2555.08 1181.04 2557.08 1181.04 2559.08 1326.04 2562.08 1326.04 2564.08 1326.04 2566.08 1326.04 2568.08 1326.04 2570.08 1326.04 2573.08 1326.04 2575.08 1326.04 2577.08 1326.04 2579.08 1326.04 2581.08 1326.04 2584.08 1471.05 2586.08 1471.05 2588.08 1471.05 2590.08 1471.05 2592.08 1471.05 2595.08 1471.05 2597.09 1471.05 2599.09 1471.05 2601.09 1471.05 2603.09 1471.05 2606.09 1471.05 2608.09 1326.04 2610.09 1326.04 2612.09 1326.04 2614.09 1326.04 2617.09 1326.04 2619.09 1326.04 2621.09 1326.04 2623.09 1326.04 2626.09 1326.04 2628.09 1326.04 2630.09 1326.04 2632.09 1181.04 2634.09 1181.04 2637.09 1181.04 2639.09 1181.04 2641.09 1181.04 2643.09 1181.04 2645.09 1181.04 2648.09 1181.04 2650.09 1181.04 2652.09 1181.04 2654.09 1181.04 2656.09 1037.03 2659.09 1037.03 2661.09 1037.03 2663.09 1037.03 2665.09 1037.03 2667.09 1037.03 2670.09 1037.03 2672.09 1037.03 2674.09 1037.03 2676.09 1037.03 2678.09 1037.03 2681.09 892.029 2683.09 892.029 2685.09 892.029 2687.09 892.029 2689.09 892.029 2692.09 892.029 2694.09 892.029 2696.09 892.029 2698.09 892.029 2701.09 892.029 2703.09 892.029 2705.09 1037.03 2707.09 1037.03 2709.09 1037.03 2712.09 1037.03 2714.09 1037.03 2716.09 1037.03 2718.09 1037.03 2720.09 1037.03 2723.09 1037.03 2725.09 1037.03 2727.09 1037.03 2729.09 1181.04 2731.09 1181.04 2734.09 1181.04 2736.09 1181.04 2738.09 1181.04 2740.09 1181.04 2742.09 1181.04 2745.09 1181.04 2747.09 1181.04 2749.09 1181.04 2751.09 1181.04 2753.09 1326.04 2756.09 1326.04 2758.09 1326.04 2760.09 1326.04 2762.09 1326.04 2765.09 1326.04 2767.09 1326.04 2769.09 1326.04 2771.09 1326.04 2773.09 1326.04 2776.09 1326.04 2778.09 1471.05 2780.09 1471.05 2782.09 1471.05 2784.09 1471.05 2787.09 1471.05 2789.09 1471.05 2791.09 1471.05 2793.09 1471.05 2795.09 1471.05 2798.09 1471.05 2800.09 1471.05 2802.09 1326.04 2804.09 1326.04 2806.09 1326.04 2809.09 1326.04 2811.09 1326.04 2813.09 1326.04 2815.09 1326.04 2817.09 1326.04 2820.09 1326.04 2822.09 1326.04 2824.09 1326.04 2826.09 1181.04 2828.09 1181.04 2831.09 1181.04 2833.09 1181.04 2835.09 1181.04 2837.09 1181.04 2840.09 1181.04 2842.09 1181.04 2844.09 1181.04 2846.09 1181.04 2848.09 1181.04 2851.09 1037.03 2853.09 1037.03 2855.09 1037.03 2857.09 1037.03 2859.09 1037.03 2862.09 1037.03 2864.09 1037.03 2866.09 1037.03 2868.09 1037.03 2870.09 1037.03 2873.09 1037.03 2875.09 892.029 2877.09 892.029 2879.09 892.029 2881.09 892.029 2884.09 892.029 2886.09 892.029 2888.09 892.029 2890.09 892.029 2892.09 892.029 2895.09 892.029 2897.09 892.029 2899.1 1037.03 2901.1 1037.03 2904.1 1037.03 2906.1 1037.03 2908.1 1037.03 2910.1 1037.03 2912.1 1037.03 2915.1 1037.03 2917.1 1037.03 2919.1 1037.03 2921.1 1037.03 2923.1 1181.04 2926.1 1181.04 2928.1 1181.04 2930.1 1181.04 2932.1 1181.04 2934.1 1181.04 2937.1 1181.04 2939.1 1181.04 2941.1 1181.04 2943.1 1181.04 2945.1 1181.04 2948.1 1326.04 2950.1 1326.04 2952.1 1326.04 2954.1 1326.04 2956.1 1326.04 2959.1 1326.04 2961.1 1326.04 2963.1 1326.04 2965.1 1326.04 2967.1 1326.04 2970.1 1326.04 2972.1 1471.05 2974.1 1471.05 2976.1 1471.05 2979.1 1471.05 2981.1 1471.05 2983.1 1471.05 2985.1 1471.05 2987.1 1471.05 2990.1 1471.05 2992.1 1471.05 2994.1 1471.05 2996.1 1326.04 2998.1 1326.04 3001.1 1326.04 3003.1 1326.04 3005.1 1326.04 3007.1 1326.04 3009.1 1326.04 3012.1 1326.04 3014.1 1326.04 3016.1 1326.04 3018.1 1326.04 3020.1 1181.04 3023.1 1181.04 3025.1 1181.04 3027.1 1181.04 3029.1 1181.04 3031.1 1181.04 3034.1 1181.04 3036.1 1181.04 3038.1 1181.04 3040.1 1181.04 3043.1 1181.04 3045.1 1037.03 3047.1 1037.03 3049.1 1037.03 3051.1 1037.03 3054.1 1037.03 3056.1 1037.03 3058.1 1037.03 3060.1 1037.03 3062.1 1037.03 3065.1 1037.03 3067.1 1037.03 3069.1 892.029 3071.1 892.029 3073.1 892.029 3076.1 892.029 3078.1 892.029 3080.1 892.029 3082.1 892.029 3084.1 892.029 3087.1 892.029 3089.1 892.029 3091.1 892.029 3093.1 1037.03 3095.1 1037.03 3098.1 1037.03 3100.1 1037.03 3102.1 1037.03 3104.1 1037.03 3106.1 1037.03 3109.1 1037.03 3111.1 1037.03 3113.1 1037.03 3115.1 1037.03 3118.1 1181.04 3120.1 1181.04 3122.1 1181.04 3124.1 1181.04 3126.1 1181.04 3129.1 1181.04 3131.1 1181.04 3133.1 1181.04 3135.1 1181.04 3137.1 1181.04 3140.1 1181.04 3142.1 1326.04 3144.1 1326.04 3146.1 1326.04 3148.1 1326.04 3151.1 1326.04 3153.1 1326.04 3155.1 1326.04 3157.1 1326.04 3159.1 1326.04 3162.1 1326.04 3164.1 1326.04 3166.1 1471.05 3168.1 1471.05 3170.1 1471.05 3173.1 1471.05 3175.1 1471.05 3177.1 1471.05 3179.1 1471.05 3181.1 1471.05 3184.1 1471.05 3186.1 1471.05 3188.1 1471.05 3190.1 1326.04 3193.1 1326.04 3195.1 1326.04 3197.1 1326.04 3199.1 1326.04 3201.1 1326.04 3204.1 1326.04 3206.1 1326.04 3208.1 1326.04 3210.11 1326.04 3212.11 1326.04 3215.11 1181.04 3217.11 1181.04 3219.11 1181.04 3221.11 1181.04 3223.11 1181.04 3226.11 1181.04 3228.11 1181.04 3230.11 1181.04 3232.11 1181.04 3234.11 1181.04 3237.11 1181.04 3239.11 1037.03 3241.11 1037.03 3243.11 1037.03 3245.11 1037.03 3248.11 1037.03 3250.11 1037.03 3252.11 1037.03 3254.11 1037.03 3257.11 1037.03 3259.11 1037.03 3261.11 1037.03 3263.11 892.029 3265.11 892.029 3268.11 892.029 3270.11 892.029 3272.11 892.029 3274.11 892.029 3276.11 892.029 3279.11 892.029 3281.11 892.029 3283.11 892.029 3285.11 892.029 3287.11 1037.03 3290.11 1037.03 3292.11 1037.03 3294.11 1037.03 3296.11 1037.03 3298.11 1037.03 3301.11 1037.03 3303.11 1037.03 3305.11 1037.03 3307.11 1037.03 3309.11 1037.03 3312.11 1181.04 3314.11 1181.04 3316.11 1181.04 3318.11 1181.04 3320.11 1181.04 3323.11 1181.04 3325.11 1181.04 3327.11 1181.04 3329.11 1181.04 3332.11 1181.04 3334.11 1181.04 3336 1326.04" stroke="#4472C4" stroke-width="10.3125" stroke-linecap="round" stroke-linejoin="round" stroke-miterlimit="10" fill="none"/></g><g><path d="M1127 1326 1130.04 1326 1132.04 1326 1134.04 1326 1136.04 1326 1138.04 1326 1141.04 1326 1143.04 1326 1145.04 1326 1147.04 1326 1149.04 1326 1152.04 1326 1154.04 1326 1156.04 1326 1158.04 1326 1161.04 1326 1163.04 1326 1165.04 1326 1167.04 1326 1169.04 1326 1172.04 1326 1174.04 1326 1176.04 1326 1178.04 1326 1180.04 1326 1183.04 1326 1185.04 1326 1187.04 1326 1189.04 1326 1191.04 1326 1194.04 1326 1196.04 1326 1198.04 1326 1200.04 1326 1202.04 1326 1205.04 1326 1207.04 1326 1209.04 1326 1211.04 1326 1213.04 1326 1216.04 1326 1218.04 1326 1220.04 1326 1222.04 1326 1225.04 1326 1227.04 1326 1229.04 1326 1231.04 1326 1233.04 1326 1236.04 1326 1238.04 1326 1240.04 1326 1242.04 1326 1244.04 1326 1247.04 1326 1249.04 1326 1251.04 1326 1253.04 1326 1255.04 1326 1258.04 1326 1260.04 1326 1262.04 1326 1264.04 1326 1266.04 1326 1269.04 1326 1271.04 1326 1273.04 1326 1275.04 1326 1277.04 1326 1280.04 1326 1282.04 1326 1284.04 1326 1286.04 1326 1288.04 1326 1291.04 1326 1293.04 1326 1295.04 1326 1297.04 1326 1300.04 1326 1302.04 1326 1304.04 1616 1306.04 1616 1308.04 1616 1311.04 1616 1313.04 1616 1315.04 1616 1317.04 1616 1319.04 1616 1322.04 1616 1324.04 1616 1326.04 1616 1328.04 1616 1330.04 1616 1333.04 1616 1335.04 1616 1337.04 1616 1339.04 1616 1341.04 1616 1344.04 1616 1346.04 1616 1348.04 1616 1350.04 1616 1352.04 1616 1355.04 1616 1357.04 1616 1359.04 1616 1361.04 1616 1364.04 1616 1366.04 1616 1368.04 1616 1370.04 1616 1372.04 1616 1375.05 1616 1377.05 1616 1379.05 1616 1381.05 1616 1383.05 1616 1386.05 1616 1388.05 1616 1390.05 1616 1392.05 1616 1394.05 1616 1397.05 1616 1399.05 1616 1401.05 1616 1403.05 1616 1405.05 1616 1408.05 1616 1410.05 1616 1412.05 1616 1414.05 1616 1416.05 1616 1419.05 1616 1421.05 1616 1423.05 1616 1425.05 1616 1427.05 1616 1430.05 1616 1432.05 1616 1434.05 1616 1436.05 1616 1439.05 1616 1441.05 1616 1443.05 1616 1445.05 1616 1447.05 1616 1450.05 1616 1452.05 1616 1454.05 1616 1456.05 1616 1458.05 1616 1461.05 1616 1463.05 1616 1465.05 1616 1467.05 1616 1469.05 1616 1472.05 1616 1474.05 1616 1476.05 1616 1478.05 1616 1480.05 1616 1483.05 1616 1485.05 1616 1487.05 1616 1489.05 1616 1491.05 1616 1494.05 1616 1496.05 1616 1498.05 1616 1500.05 1616 1503.05 1616 1505.05 1616 1507.05 1616 1509.05 1616 1511.05 1616 1514.05 1616 1516.05 1616 1518.05 1616 1520.05 1616 1522.05 1326 1525.05 1326 1527.05 1326 1529.05 1326 1531.05 1326 1533.05 1326 1536.05 1326 1538.05 1326 1540.05 1326 1542.05 1326 1544.05 1326 1547.05 1326 1549.05 1326 1551.05 1326 1553.05 1326 1555.05 1326 1558.05 1326 1560.05 1326 1562.05 1326 1564.05 1326 1566.05 1326 1569.05 1326 1571.05 1326 1573.05 1326 1575.05 1326 1578.05 1326 1580.05 1326 1582.05 1326 1584.05 1326 1586.05 1326 1589.05 1326 1591.05 1326 1593.05 1326 1595.05 1326 1597.05 1326 1600.05 1326 1602.05 1326 1604.05 1326 1606.05 1326 1608.05 1326 1611.05 1326 1613.05 1326 1615.05 1326 1617.05 1326 1619.05 1326 1622.05 1326 1624.05 1326 1626.05 1326 1628.05 1326 1630.05 1326 1633.05 1326 1635.05 1326 1637.05 1326 1639.05 1326 1641.05 1326 1644.05 1326 1646.05 1326 1648.05 1326 1650.05 1326 1653.05 1326 1655.05 1326 1657.05 1326 1659.05 1326 1661.05 1326 1664.05 1326 1666.05 1326 1668.05 1326 1670.05 1326 1672.05 1326 1675.05 1326 1677.05 1326 1679.06 1326 1681.06 1326 1683.06 1326 1686.06 1326 1688.06 1326 1690.06 1326 1692.06 1326 1694.06 1326 1697.06 1326 1699.06 1326 1701.06 1326 1703.06 1616 1705.06 1616 1708.06 1616 1710.06 1616 1712.06 1616 1714.06 1616 1717.06 1616 1719.06 1616 1721.06 1616 1723.06 1616 1725.06 1616 1728.06 1616 1730.06 1616 1732.06 1616 1734.06 1616 1736.06 1616 1739.06 1616 1741.06 1616 1743.06 1616 1745.06 1616 1747.06 1616 1750.06 1616 1752.06 1616 1754.06 1616 1756.06 1616 1758.06 1616 1761.06 1616 1763.06 1616 1765.06 1616 1767.06 1616 1769.06 1616 1772.06 1616 1774.06 1616 1776.06 1616 1778.06 1616 1780.06 1616 1783.06 1616 1785.06 1616 1787.06 1616 1789.06 1616 1792.06 1616 1794.06 1616 1796.06 1616 1798.06 1616 1800.06 1616 1803.06 1616 1805.06 1616 1807.06 1616 1809.06 1616 1811.06 1616 1814.06 1616 1816.06 1616 1818.06 1616 1820.06 1616 1822.06 1616 1825.06 1616 1827.06 1326 1829.06 1326 1831.06 1326 1833.06 1326 1836.06 1326 1838.06 1326 1840.06 1326 1842.06 1326 1844.06 1326 1847.06 1326 1849.06 1326 1851.06 1326 1853.06 1326 1856.06 1326 1858.06 1326 1860.06 1326 1862.06 1326 1864.06 1326 1867.06 1326 1869.06 1326 1871.06 1326 1873.06 1326 1875.06 1326 1878.06 1326 1880.06 1326 1882.06 1326 1884.06 1326 1886.06 1326 1889.06 1326 1891.06 1326 1893.06 1326 1895.06 1326 1897.06 1326 1900.06 1326 1902.06 1326 1904.06 1326 1906.06 1616 1908.06 1616 1911.06 1616 1913.06 1616 1915.06 1616 1917.06 1616 1919.06 1616 1922.06 1616 1924.06 1616 1926.06 1616 1928.06 1616 1931.06 1616 1933.06 1616 1935.06 1616 1937.06 1616 1939.06 1616 1942.06 1616 1944.06 1616 1946.06 1616 1948.06 1616 1950.06 1616 1953.06 1616 1955.06 1616 1957.06 1616 1959.06 1616 1961.06 1616 1964.06 1616 1966.06 1616 1968.06 1616 1970.06 1616 1972.06 1616 1975.06 1616 1977.06 1616 1979.06 1616 1981.06 1616 1983.06 1616 1986.07 1616 1988.07 1616 1990.07 1616 1992.07 1616 1995.07 1616 1997.07 1616 1999.07 1616 2001.07 1616 2003.07 1616 2006.07 1616 2008.07 1616 2010.07 1616 2012.07 1616 2014.07 1326 2017.07 1326 2019.07 1326 2021.07 1326 2023.07 1326 2025.07 1326 2028.07 1326 2030.07 1326 2032.07 1326 2034.07 1326 2036.07 1326 2039.07 1326 2041.07 1326 2043.07 1326 2045.07 1326 2047.07 1326 2050.07 1326 2052.07 1326 2054.07 1326 2056.07 1326 2058.07 1326 2061.07 1326 2063.07 1326 2065.07 1326 2067.07 1326 2070.07 1326 2072.07 1326 2074.07 1326 2076.07 1326 2078.07 1326 2081.07 1326 2083.07 1326 2085.07 1326 2087.07 1326 2089.07 1326 2092.07 1326 2094.07 1326 2096.07 1326 2098.07 1326 2100.07 1326 2103.07 1326 2105.07 1616 2107.07 1616 2109.07 1616 2111.07 1616 2114.07 1616 2116.07 1616 2118.07 1616 2120.07 1616 2122.07 1616 2125.07 1616 2127.07 1616 2129.07 1616 2131.07 1616 2134.07 1616 2136.07 1616 2138.07 1616 2140.07 1616 2142.07 1616 2145.07 1616 2147.07 1616 2149.07 1616 2151.07 1616 2153.07 1616 2156.07 1616 2158.07 1616 2160.07 1616 2162.07 1616 2164.07 1616 2167.07 1616 2169.07 1616 2171.07 1616 2173.07 1616 2175.07 1616 2178.07 1616 2180.07 1616 2182.07 1616 2184.07 1616 2186.07 1616 2189.07 1616 2191.07 1616 2193.07 1616 2195.07 1616 2197.07 1616 2200.07 1616 2202.07 1616 2204.07 1616 2206.07 1326 2209.07 1326 2211.07 1326 2213.07 1326 2215.07 1326 2217.07 1326 2220.07 1326 2222.07 1326 2224.07 1326 2226.07 1326 2228.07 1326 2231.07 1326 2233.07 1326 2235.07 1326 2237.07 1326 2239.07 1326 2242.07 1326 2244.07 1326 2246.07 1326 2248.07 1326 2250.07 1326 2253.07 1326 2255.07 1326 2257.07 1326 2259.07 1326 2261.07 1326 2264.07 1326 2266.07 1326 2268.07 1326 2270.07 1326 2273.07 1326 2275.07 1326 2277.07 1326 2279.07 1326 2281.07 1326 2284.07 1326 2286.07 1326 2288.08 1326 2290.08 1326 2292.08 1326 2295.08 1326 2297.08 1326 2299.08 1326 2301.08 1616 2303.08 1616 2306.08 1616 2308.08 1616 2310.08 1616 2312.08 1616 2314.08 1616 2317.08 1616 2319.08 1616 2321.08 1616 2323.08 1616 2325.08 1616 2328.08 1616 2330.08 1616 2332.08 1616 2334.08 1616 2336.08 1616 2339.08 1616 2341.08 1616 2343.08 1616 2345.08 1616 2348.08 1616 2350.08 1616 2352.08 1616 2354.08 1616 2356.08 1616 2359.08 1616 2361.08 1616 2363.08 1616 2365.08 1616 2367.08 1616 2370.08 1616 2372.08 1616 2374.08 1616 2376.08 1616 2378.08 1616 2381.08 1616 2383.08 1616 2385.08 1616 2387.08 1616 2389.08 1616 2392.08 1616 2394.08 1616 2396.08 1616 2398.08 1616 2400.08 1326 2403.08 1326 2405.08 1326 2407.08 1326 2409.08 1326 2411.08 1326 2414.08 1326 2416.08 1326 2418.08 1326 2420.08 1326 2423.08 1326 2425.08 1326 2427.08 1326 2429.08 1326 2431.08 1326 2434.08 1326 2436.08 1326 2438.08 1326 2440.08 1326 2442.08 1326 2445.08 1326 2447.08 1326 2449.08 1326 2451.08 1326 2453.08 1326 2456.08 1326 2458.08 1326 2460.08 1326 2462.08 1326 2464.08 1326 2467.08 1326 2469.08 1326 2471.08 1326 2473.08 1326 2475.08 1326 2478.08 1326 2480.08 1326 2482.08 1326 2484.08 1326 2487.08 1326 2489.08 1326 2491.08 1326 2493.08 1326 2495.08 1616 2498.08 1616 2500.08 1616 2502.08 1616 2504.08 1616 2506.08 1616 2509.08 1616 2511.08 1616 2513.08 1616 2515.08 1616 2517.08 1616 2520.08 1616 2522.08 1616 2524.08 1616 2526.08 1616 2528.08 1616 2531.08 1616 2533.08 1616 2535.08 1616 2537.08 1616 2539.08 1616 2542.08 1616 2544.08 1616 2546.08 1616 2548.08 1616 2550.08 1616 2553.08 1616 2555.08 1616 2557.08 1616 2559.08 1616 2562.08 1616 2564.08 1616 2566.08 1616 2568.08 1616 2570.08 1616 2573.08 1616 2575.08 1616 2577.08 1616 2579.08 1616 2581.08 1616 2584.08 1616 2586.08 1616 2588.08 1616 2590.08 1616 2592.08 1326 2595.08 1326 2597.09 1326 2599.09 1326 2601.09 1326 2603.09 1326 2606.09 1326 2608.09 1326 2610.09 1326 2612.09 1326 2614.09 1326 2617.09 1326 2619.09 1326 2621.09 1326 2623.09 1326 2626.09 1326 2628.09 1326 2630.09 1326 2632.09 1326 2634.09 1326 2637.09 1326 2639.09 1326 2641.09 1326 2643.09 1326 2645.09 1326 2648.09 1326 2650.09 1326 2652.09 1326 2654.09 1326 2656.09 1326 2659.09 1326 2661.09 1326 2663.09 1326 2665.09 1326 2667.09 1326 2670.09 1326 2672.09 1326 2674.09 1326 2676.09 1326 2678.09 1326 2681.09 1326 2683.09 1326 2685.09 1326 2687.09 1326 2689.09 1616 2692.09 1616 2694.09 1616 2696.09 1616 2698.09 1616 2701.09 1616 2703.09 1616 2705.09 1616 2707.09 1616 2709.09 1616 2712.09 1616 2714.09 1616 2716.09 1616 2718.09 1616 2720.09 1616 2723.09 1616 2725.09 1616 2727.09 1616 2729.09 1616 2731.09 1616 2734.09 1616 2736.09 1616 2738.09 1616 2740.09 1616 2742.09 1616 2745.09 1616 2747.09 1616 2749.09 1616 2751.09 1616 2753.09 1616 2756.09 1616 2758.09 1616 2760.09 1616 2762.09 1616 2765.09 1616 2767.09 1616 2769.09 1616 2771.09 1616 2773.09 1616 2776.09 1616 2778.09 1616 2780.09 1616 2782.09 1616 2784.09 1616 2787.09 1326 2789.09 1326 2791.09 1326 2793.09 1326 2795.09 1326 2798.09 1326 2800.09 1326 2802.09 1326 2804.09 1326 2806.09 1326 2809.09 1326 2811.09 1326 2813.09 1326 2815.09 1326 2817.09 1326 2820.09 1326 2822.09 1326 2824.09 1326 2826.09 1326 2828.09 1326 2831.09 1326 2833.09 1326 2835.09 1326 2837.09 1326 2840.09 1326 2842.09 1326 2844.09 1326 2846.09 1326 2848.09 1326 2851.09 1326 2853.09 1326 2855.09 1326 2857.09 1326 2859.09 1326 2862.09 1326 2864.09 1326 2866.09 1326 2868.09 1326 2870.09 1326 2873.09 1326 2875.09 1326 2877.09 1326 2879.09 1326 2881.09 1326 2884.09 1616 2886.09 1616 2888.09 1616 2890.09 1616 2892.09 1616 2895.09 1616 2897.09 1616 2899.1 1616 2901.1 1616 2904.1 1616 2906.1 1616 2908.1 1616 2910.1 1616 2912.1 1616 2915.1 1616 2917.1 1616 2919.1 1616 2921.1 1616 2923.1 1616 2926.1 1616 2928.1 1616 2930.1 1616 2932.1 1616 2934.1 1616 2937.1 1616 2939.1 1616 2941.1 1616 2943.1 1616 2945.1 1616 2948.1 1616 2950.1 1616 2952.1 1616 2954.1 1616 2956.1 1616 2959.1 1616 2961.1 1616 2963.1 1616 2965.1 1616 2967.1 1616 2970.1 1616 2972.1 1616 2974.1 1616 2976.1 1616 2979.1 1616 2981.1 1326 2983.1 1326 2985.1 1326 2987.1 1326 2990.1 1326 2992.1 1326 2994.1 1326 2996.1 1326 2998.1 1326 3001.1 1326 3003.1 1326 3005.1 1326 3007.1 1326 3009.1 1326 3012.1 1326 3014.1 1326 3016.1 1326 3018.1 1326 3020.1 1326 3023.1 1326 3025.1 1326 3027.1 1326 3029.1 1326 3031.1 1326 3034.1 1326 3036.1 1326 3038.1 1326 3040.1 1326 3043.1 1326 3045.1 1326 3047.1 1326 3049.1 1326 3051.1 1326 3054.1 1326 3056.1 1326 3058.1 1326 3060.1 1326 3062.1 1326 3065.1 1326 3067.1 1326 3069.1 1326 3071.1 1326 3073.1 1326 3076.1 1326 3078.1 1616 3080.1 1616 3082.1 1616 3084.1 1616 3087.1 1616 3089.1 1616 3091.1 1616 3093.1 1616 3095.1 1616 3098.1 1616 3100.1 1616 3102.1 1616 3104.1 1616 3106.1 1616 3109.1 1616 3111.1 1616 3113.1 1616 3115.1 1616 3118.1 1616 3120.1 1616 3122.1 1616 3124.1 1616 3126.1 1616 3129.1 1616 3131.1 1616 3133.1 1616 3135.1 1616 3137.1 1616 3140.1 1616 3142.1 1616 3144.1 1616 3146.1 1616 3148.1 1616 3151.1 1616 3153.1 1616 3155.1 1616 3157.1 1616 3159.1 1616 3162.1 1616 3164.1 1616 3166.1 1616 3168.1 1616 3170.1 1616 3173.1 1616 3175.1 1326 3177.1 1326 3179.1 1326 3181.1 1326 3184.1 1326 3186.1 1326 3188.1 1326 3190.1 1326 3193.1 1326 3195.1 1326 3197.1 1326 3199.1 1326 3201.1 1326 3204.1 1326 3206.1 1326 3208.1 1326 3210.11 1326 3212.11 1326 3215.11 1326 3217.11 1326 3219.11 1326 3221.11 1326 3223.11 1326 3226.11 1326 3228.11 1326 3230.11 1326 3232.11 1326 3234.11 1326 3237.11 1326 3239.11 1326 3241.11 1326 3243.11 1326 3245.11 1326 3248.11 1326 3250.11 1326 3252.11 1326 3254.11 1326 3257.11 1326 3259.11 1326 3261.11 1326 3263.11 1326 3265.11 1326 3268.11 1326 3270.11 1326 3272.11 1616 3274.11 1616 3276.11 1616 3279.11 1616 3281.11 1616 3283.11 1616 3285.11 1616 3287.11 1616 3290.11 1616 3292.11 1616 3294.11 1616 3296.11 1616 3298.11 1616 3301.11 1616 3303.11 1616 3305.11 1616 3307.11 1616 3309.11 1616 3312.11 1616 3314.11 1616 3316.11 1616 3318.11 1616 3320.11 1616 3323.11 1616 3325.11 1616 3327.11 1616 3329.11 1616 3332.11 1616 3334.11 1616 3336 1616" stroke="#70AD47" stroke-width="10.3125" stroke-linecap="round" stroke-linejoin="round" stroke-miterlimit="10" fill="none"/></g><g><text fill="#595959" font-family="Calibri,Calibri_MSFontService,sans-serif" font-weight="400" font-size="41" transform="matrix(1 0 0 1 1054.57 1917)">-3</text></g><g><text fill="#595959" font-family="Calibri,Calibri_MSFontService,sans-serif" font-weight="400" font-size="41" transform="matrix(1 0 0 1 1054.57 1772)">-2</text></g><g><text fill="#595959" font-family="Calibri,Calibri_MSFontService,sans-serif" font-weight="400" font-size="41" transform="matrix(1 0 0 1 1054.57 1627)">-1</text></g><g><text fill="#595959" font-family="Calibri,Calibri_MSFontService,sans-serif" font-weight="400" font-size="41" transform="matrix(1 0 0 1 1067.2 1483)">0</text></g><g><text fill="#595959" font-family="Calibri,Calibri_MSFontService,sans-serif" font-weight="400" font-size="41" transform="matrix(1 0 0 1 1067.2 1338)">1</text></g><g><text fill="#595959" font-family="Calibri,Calibri_MSFontService,sans-serif" font-weight="400" font-size="41" transform="matrix(1 0 0 1 1067.2 1193)">2</text></g><g><text fill="#595959" font-family="Calibri,Calibri_MSFontService,sans-serif" font-weight="400" font-size="41" transform="matrix(1 0 0 1 1067.2 1048)">3</text></g><g><text fill="#595959" font-family="Calibri,Calibri_MSFontService,sans-serif" font-weight="400" font-size="41" transform="matrix(1 0 0 1 1067.2 903)">4</text></g><g><text fill="#595959" font-family="Calibri,Calibri_MSFontService,sans-serif" font-weight="400" font-size="41" transform="matrix(1 0 0 1 1067.2 759)">5</text></g><g><text fill="#595959" font-family="Calibri,Calibri_MSFontService,sans-serif" font-weight="400" font-size="41" transform="matrix(1 0 0 1 1067.2 614)">6</text></g><g><text fill="#595959" font-family="Calibri,Calibri_MSFontService,sans-serif" font-weight="400" font-size="41" transform="matrix(1 0 0 1 1067.2 469)">7</text></g><g><text fill="#595959" font-family="Calibri,Calibri_MSFontService,sans-serif" font-weight="400" font-size="41" transform="matrix(1 0 0 1 1067.2 324)">8</text></g><g><text fill="#595959" font-family="Calibri,Calibri_MSFontService,sans-serif" font-weight="400" font-size="41" transform="matrix(6.12323e-17 -1 1 6.12323e-17 1141.29 1518)">0</text></g><g><text fill="#595959" font-family="Calibri,Calibri_MSFontService,sans-serif" font-weight="400" font-size="41" transform="matrix(6.12323e-17 -1 1 6.12323e-17 1194.25 1570)">0.23</text></g><g><text fill="#595959" font-family="Calibri,Calibri_MSFontService,sans-serif" font-weight="400" font-size="41" transform="matrix(6.12323e-17 -1 1 6.12323e-17 1247.2 1570)">0.47</text></g><g><text fill="#595959" font-family="Calibri,Calibri_MSFontService,sans-serif" font-weight="400" font-size="41" transform="matrix(6.12323e-17 -1 1 6.12323e-17 1300.15 1570)">0.71</text></g><g><text fill="#595959" font-family="Calibri,Calibri_MSFontService,sans-serif" font-weight="400" font-size="41" transform="matrix(6.12323e-17 -1 1 6.12323e-17 1353.11 1570)">0.95</text></g><g><text fill="#595959" font-family="Calibri,Calibri_MSFontService,sans-serif" font-weight="400" font-size="41" transform="matrix(6.12323e-17 -1 1 6.12323e-17 1406.06 1570)">1.19</text></g><g><text fill="#595959" font-family="Calibri,Calibri_MSFontService,sans-serif" font-weight="400" font-size="41" transform="matrix(6.12323e-17 -1 1 6.12323e-17 1459.01 1570)">1.43</text></g><g><text fill="#595959" font-family="Calibri,Calibri_MSFontService,sans-serif" font-weight="400" font-size="41" transform="matrix(6.12323e-17 -1 1 6.12323e-17 1511.97 1570)">1.67</text></g><g><text fill="#595959" font-family="Calibri,Calibri_MSFontService,sans-serif" font-weight="400" font-size="41" transform="matrix(6.12323e-17 -1 1 6.12323e-17 1564.92 1570)">1.91</text></g><g><text fill="#595959" font-family="Calibri,Calibri_MSFontService,sans-serif" font-weight="400" font-size="41" transform="matrix(6.12323e-17 -1 1 6.12323e-17 1617.87 1570)">2.15</text></g><g><text fill="#595959" font-family="Calibri,Calibri_MSFontService,sans-serif" font-weight="400" font-size="41" transform="matrix(6.12323e-17 -1 1 6.12323e-17 1670.82 1570)">2.39</text></g><g><text fill="#595959" font-family="Calibri,Calibri_MSFontService,sans-serif" font-weight="400" font-size="41" transform="matrix(6.12323e-17 -1 1 6.12323e-17 1723.78 1570)">2.63</text></g><g><text fill="#595959" font-family="Calibri,Calibri_MSFontService,sans-serif" font-weight="400" font-size="41" transform="matrix(6.12323e-17 -1 1 6.12323e-17 1776.73 1570)">2.87</text></g><g><text fill="#595959" font-family="Calibri,Calibri_MSFontService,sans-serif" font-weight="400" font-size="41" transform="matrix(6.12323e-17 -1 1 6.12323e-17 1829.68 1570)">3.11</text></g><g><text fill="#595959" font-family="Calibri,Calibri_MSFontService,sans-serif" font-weight="400" font-size="41" transform="matrix(6.12323e-17 -1 1 6.12323e-17 1882.64 1570)">3.35</text></g><g><text fill="#595959" font-family="Calibri,Calibri_MSFontService,sans-serif" font-weight="400" font-size="41" transform="matrix(6.12323e-17 -1 1 6.12323e-17 1935.59 1570)">3.59</text></g><g><text fill="#595959" font-family="Calibri,Calibri_MSFontService,sans-serif" font-weight="400" font-size="41" transform="matrix(6.12323e-17 -1 1 6.12323e-17 1988.54 1570)">3.83</text></g><g><text fill="#595959" font-family="Calibri,Calibri_MSFontService,sans-serif" font-weight="400" font-size="41" transform="matrix(6.12323e-17 -1 1 6.12323e-17 2041.49 1570)">4.07</text></g><g><text fill="#595959" font-family="Calibri,Calibri_MSFontService,sans-serif" font-weight="400" font-size="41" transform="matrix(6.12323e-17 -1 1 6.12323e-17 2094.45 1570)">4.31</text></g><g><text fill="#595959" font-family="Calibri,Calibri_MSFontService,sans-serif" font-weight="400" font-size="41" transform="matrix(6.12323e-17 -1 1 6.12323e-17 2147.4 1570)">4.55</text></g><g><text fill="#595959" font-family="Calibri,Calibri_MSFontService,sans-serif" font-weight="400" font-size="41" transform="matrix(6.12323e-17 -1 1 6.12323e-17 2200.35 1570)">4.79</text></g><g><text fill="#595959" font-family="Calibri,Calibri_MSFontService,sans-serif" font-weight="400" font-size="41" transform="matrix(6.12323e-17 -1 1 6.12323e-17 2253.31 1570)">5.03</text></g><g><text fill="#595959" font-family="Calibri,Calibri_MSFontService,sans-serif" font-weight="400" font-size="41" transform="matrix(6.12323e-17 -1 1 6.12323e-17 2306.26 1570)">5.27</text></g><g><text fill="#595959" font-family="Calibri,Calibri_MSFontService,sans-serif" font-weight="400" font-size="41" transform="matrix(6.12323e-17 -1 1 6.12323e-17 2359.21 1570)">5.51</text></g><g><text fill="#595959" font-family="Calibri,Calibri_MSFontService,sans-serif" font-weight="400" font-size="41" transform="matrix(6.12323e-17 -1 1 6.12323e-17 2412.17 1570)">5.75</text></g><g><text fill="#595959" font-family="Calibri,Calibri_MSFontService,sans-serif" font-weight="400" font-size="41" transform="matrix(6.12323e-17 -1 1 6.12323e-17 2465.12 1570)">5.99</text></g><g><text fill="#595959" font-family="Calibri,Calibri_MSFontService,sans-serif" font-weight="400" font-size="41" transform="matrix(6.12323e-17 -1 1 6.12323e-17 2518.07 1570)">6.23</text></g><g><text fill="#595959" font-family="Calibri,Calibri_MSFontService,sans-serif" font-weight="400" font-size="41" transform="matrix(6.12323e-17 -1 1 6.12323e-17 2571.02 1570)">6.47</text></g><g><text fill="#595959" font-family="Calibri,Calibri_MSFontService,sans-serif" font-weight="400" font-size="41" transform="matrix(6.12323e-17 -1 1 6.12323e-17 2623.98 1570)">6.71</text></g><g><text fill="#595959" font-family="Calibri,Calibri_MSFontService,sans-serif" font-weight="400" font-size="41" transform="matrix(6.12323e-17 -1 1 6.12323e-17 2676.93 1570)">6.95</text></g><g><text fill="#595959" font-family="Calibri,Calibri_MSFontService,sans-serif" font-weight="400" font-size="41" transform="matrix(6.12323e-17 -1 1 6.12323e-17 2729.88 1570)">7.19</text></g><g><text fill="#595959" font-family="Calibri,Calibri_MSFontService,sans-serif" font-weight="400" font-size="41" transform="matrix(6.12323e-17 -1 1 6.12323e-17 2782.84 1570)">7.43</text></g><g><text fill="#595959" font-family="Calibri,Calibri_MSFontService,sans-serif" font-weight="400" font-size="41" transform="matrix(6.12323e-17 -1 1 6.12323e-17 2835.79 1570)">7.67</text></g><g><text fill="#595959" font-family="Calibri,Calibri_MSFontService,sans-serif" font-weight="400" font-size="41" transform="matrix(6.12323e-17 -1 1 6.12323e-17 2888.74 1570)">7.91</text></g><g><text fill="#595959" font-family="Calibri,Calibri_MSFontService,sans-serif" font-weight="400" font-size="41" transform="matrix(6.12323e-17 -1 1 6.12323e-17 2941.7 1570)">8.15</text></g><g><text fill="#595959" font-family="Calibri,Calibri_MSFontService,sans-serif" font-weight="400" font-size="41" transform="matrix(6.12323e-17 -1 1 6.12323e-17 2994.65 1570)">8.39</text></g><g><text fill="#595959" font-family="Calibri,Calibri_MSFontService,sans-serif" font-weight="400" font-size="41" transform="matrix(6.12323e-17 -1 1 6.12323e-17 3047.6 1570)">8.63</text></g><g><text fill="#595959" font-family="Calibri,Calibri_MSFontService,sans-serif" font-weight="400" font-size="41" transform="matrix(6.12323e-17 -1 1 6.12323e-17 3100.55 1570)">8.87</text></g><g><text fill="#595959" font-family="Calibri,Calibri_MSFontService,sans-serif" font-weight="400" font-size="41" transform="matrix(6.12323e-17 -1 1 6.12323e-17 3153.51 1570)">9.11</text></g><g><text fill="#595959" font-family="Calibri,Calibri_MSFontService,sans-serif" font-weight="400" font-size="41" transform="matrix(6.12323e-17 -1 1 6.12323e-17 3206.46 1570)">9.35</text></g><g><text fill="#595959" font-family="Calibri,Calibri_MSFontService,sans-serif" font-weight="400" font-size="41" transform="matrix(6.12323e-17 -1 1 6.12323e-17 3259.41 1570)">9.59</text></g><g><text fill="#595959" font-family="Calibri,Calibri_MSFontService,sans-serif" font-weight="400" font-size="41" transform="matrix(6.12323e-17 -1 1 6.12323e-17 3312.37 1570)">9.83</text></g><g><text fill="#595959" font-family="Calibri,Calibri_MSFontService,sans-serif" font-weight="400" font-size="64" transform="matrix(1 0 0 1 2059.33 238)">Supervisor Scenario</text></g><g><path d="M3409 993 3497 993" stroke="#ED7D31" stroke-width="10.3125" stroke-linecap="round" stroke-linejoin="round" stroke-miterlimit="10" fill="none" fill-rule="evenodd"/></g><g><text fill="#595959" font-family="Calibri,Calibri_MSFontService,sans-serif" font-weight="400" font-size="41" transform="matrix(1 0 0 1 3506.16 1005)">x</text></g><g><path d="M3409 1070 3497 1070" stroke="#A5A5A5" stroke-width="10.3125" stroke-linecap="round" stroke-linejoin="round" stroke-miterlimit="10" fill="none" fill-rule="evenodd"/></g><g><text fill="#595959" font-family="Calibri,Calibri_MSFontService,sans-serif" font-weight="400" font-size="41" transform="matrix(1 0 0 1 3506.16 1082)">r</text></g><g><path d="M3409 1148 3497 1148" stroke="#4472C4" stroke-width="10.3125" stroke-linecap="round" stroke-linejoin="round" stroke-miterlimit="10" fill="none" fill-rule="evenodd"/></g><g><text fill="#595959" font-family="Calibri,Calibri_MSFontService,sans-serif" font-weight="400" font-size="41" transform="matrix(1 0 0 1 3506.16 1159)">u_r</text></g><g><path d="M3409 1225 3497 1225" stroke="#70AD47" stroke-width="10.3125" stroke-linecap="round" stroke-linejoin="round" stroke-miterlimit="10" fill="none" fill-rule="evenodd"/></g><g><text fill="#595959" font-family="Calibri,Calibri_MSFontService,sans-serif" font-weight="400" font-size="41" transform="matrix(1 0 0 1 3506.16 1237)">a_s</text></g><rect x="1025.5" y="143.5" width="2584" height="1813" stroke="#D9D9D9" stroke-width="3.4375" stroke-linejoin="round" stroke-miterlimit="10" fill="none"/></g></svg>